M48
; DRILL file {KiCad 8.0.4+1} date 2024-10-19T13:43:31+0000
; FORMAT={-:-/ absolute / metric / decimal}
; #@! TF.CreationDate,2024-10-19T13:43:31+00:00
; #@! TF.GenerationSoftware,Kicad,Pcbnew,8.0.4+1
; #@! TF.FileFunction,Plated,1,4,PTH
FMAT,2
METRIC
; #@! TA.AperFunction,Plated,PTH,ViaDrill
T1C0.300
; #@! TA.AperFunction,Plated,PTH,ComponentDrill
T2C0.300
; #@! TA.AperFunction,Plated,PTH,ComponentDrill
T3C0.600
; #@! TA.AperFunction,Plated,PTH,ComponentDrill
T4C0.700
; #@! TA.AperFunction,Plated,PTH,ComponentDrill
T5C0.740
; #@! TA.AperFunction,Plated,PTH,ComponentDrill
T6C0.890
; #@! TA.AperFunction,Plated,PTH,ComponentDrill
T7C0.920
; #@! TA.AperFunction,Plated,PTH,ComponentDrill
T8C0.950
; #@! TA.AperFunction,Plated,PTH,ComponentDrill
T9C1.000
; #@! TA.AperFunction,Plated,PTH,ComponentDrill
T10C1.016
; #@! TA.AperFunction,Plated,PTH,ComponentDrill
T11C1.020
; #@! TA.AperFunction,Plated,PTH,ComponentDrill
T12C1.300
; #@! TA.AperFunction,Plated,PTH,ComponentDrill
T13C1.350
; #@! TA.AperFunction,Plated,PTH,ComponentDrill
T14C1.400
; #@! TA.AperFunction,Plated,PTH,ComponentDrill
T15C1.630
; #@! TA.AperFunction,Plated,PTH,ComponentDrill
T16C1.800
; #@! TA.AperFunction,Plated,PTH,ComponentDrill
T17C2.300
; #@! TA.AperFunction,Plated,PTH,ComponentDrill
T18C4.300
%
G90
G05
T1
X48.65Y-39.4
X54.4Y-53.4
X56.769Y-188.976
X57.0Y-20.5
X57.0Y-21.5
X57.0Y-22.5
X57.0Y-23.5
X57.0Y-24.5
X57.5Y-132.55
X57.5Y-137.8
X57.6Y-53.4
X57.75Y-116.75
X57.75Y-118.0
X57.75Y-122.0
X57.75Y-123.25
X58.0Y-20.5
X58.0Y-21.5
X58.0Y-22.5
X58.0Y-23.5
X58.0Y-24.5
X58.75Y-132.55
X58.75Y-137.8
X59.0Y-20.5
X59.0Y-21.5
X59.0Y-22.5
X59.0Y-23.5
X59.0Y-24.5
X59.0Y-116.75
X59.0Y-118.0
X59.0Y-122.0
X59.0Y-123.25
X59.25Y-170.75
X59.7Y-78.5
X59.75Y-190.25
X59.95Y-59.15
X59.95Y-61.65
X59.95Y-66.65
X60.0Y-64.2
X60.0Y-116.75
X60.0Y-118.0
X60.0Y-122.0
X60.0Y-123.25
X60.1Y-132.55
X60.1Y-137.8
X60.2Y-81.3
X60.5Y-178.75
X60.6Y-65.6
X60.8Y-60.4
X60.8Y-63.0
X60.9Y-71.3
X61.0Y-58.0
X61.0Y-68.6
X61.0Y-116.75
X61.0Y-118.0
X61.0Y-122.0
X61.0Y-123.25
X61.35Y-132.55
X61.35Y-137.8
X61.5Y-20.5
X61.5Y-21.5
X61.5Y-22.5
X61.5Y-23.5
X61.5Y-24.5
X62.2Y-69.8
X62.5Y-20.5
X62.5Y-21.5
X62.5Y-22.5
X62.5Y-23.5
X62.5Y-24.5
X62.65Y-90.8
X62.65Y-91.8
X62.65Y-92.75
X62.65Y-97.1
X62.7Y-132.55
X63.4Y-58.0
X63.4Y-60.4
X63.4Y-63.0
X63.4Y-65.6
X63.5Y-20.5
X63.5Y-21.5
X63.5Y-22.5
X63.5Y-23.5
X63.5Y-24.5
X63.95Y-132.55
X65.2Y-59.2
X65.2Y-61.8
X65.2Y-64.2
X65.2Y-66.6
X65.2Y-84.8
X65.3Y-132.55
X66.0Y-20.5
X66.0Y-21.5
X66.0Y-22.5
X66.0Y-23.5
X66.0Y-24.5
X66.075Y-70.925
X66.2Y-68.8
X66.25Y-175.0
X66.45Y-136.4
X66.45Y-137.65
X66.45Y-139.0
X66.45Y-140.25
X66.55Y-132.55
X67.0Y-20.5
X67.0Y-21.5
X67.0Y-22.5
X67.0Y-23.5
X67.0Y-24.5
X67.2Y-53.4
X68.0Y-20.5
X68.0Y-21.5
X68.0Y-22.5
X68.0Y-23.5
X68.0Y-24.5
X68.0Y-69.6
X68.0Y-168.0
X68.0Y-169.0
X68.0Y-173.0
X68.0Y-174.0
X68.2Y-74.95
X69.0Y-168.0
X69.0Y-169.0
X69.0Y-173.0
X69.0Y-174.0
X69.75Y-178.75
X69.9Y-72.4
X70.0Y-168.0
X70.0Y-169.0
X70.0Y-173.0
X70.0Y-174.0
X70.6Y-53.4
X71.4Y-88.0
X71.6Y-80.8
X71.7Y-75.7
X72.9Y-179.6
X74.0Y-102.5
X74.75Y-177.25
X75.4Y-106.1
X75.7Y-158.0
X76.0Y-159.5
X76.2Y-156.7
X77.1Y-132.6
X77.1Y-137.85
X78.35Y-132.6
X78.35Y-137.85
X78.5Y-161.0
X78.5Y-165.9
X78.5Y-176.75
X78.6Y-154.1
X78.8Y-87.8
X79.15Y-124.55
X79.3Y-152.0
X79.7Y-132.6
X79.7Y-137.85
X79.7Y-155.9
X79.8Y-152.8
X79.9Y-159.65
X80.3Y-150.2
X80.7Y-157.4
X80.75Y-152.6
X80.95Y-132.6
X80.95Y-137.85
X81.0Y-165.9
X81.0Y-176.75
X81.5Y-153.3
X82.0Y-164.0
X82.3Y-132.6
X82.3Y-152.75
X82.7Y-160.9
X83.5Y-168.7
X83.55Y-132.6
X84.0Y-163.5
X84.5Y-181.0
X84.5Y-182.0
X84.5Y-183.0
X84.6Y-153.5
X84.9Y-132.6
X85.25Y-169.25
X85.25Y-170.5
X85.25Y-172.5
X85.25Y-173.75
X85.25Y-191.25
X85.5Y-153.25
X85.7Y-151.5
X85.73Y-39.5
X85.8Y-147.2
X86.0Y-184.0
X86.1Y-136.4
X86.1Y-137.65
X86.1Y-139.0
X86.1Y-140.25
X86.15Y-132.6
X87.0Y-184.0
X87.3Y-161.9
X87.5Y-151.5
X87.75Y-169.25
X87.75Y-170.5
X88.0Y-147.2
X88.0Y-184.0
X88.35Y-161.95
X89.0Y-175.5
X89.0Y-176.5
X89.0Y-177.5
X89.0Y-178.5
X89.0Y-179.5
X89.2Y-164.2
X90.0Y-175.5
X90.0Y-176.5
X90.0Y-177.5
X90.0Y-178.5
X90.0Y-179.5
X90.1Y-160.8
X90.1Y-151.35
X90.35Y-125.5
X90.4Y-154.9
X91.0Y-175.5
X91.0Y-176.5
X91.0Y-177.5
X91.0Y-178.5
X91.0Y-179.5
X91.48Y-53.5
X92.0Y-129.35
X92.5Y-154.6
X92.5Y-159.8
X92.85Y-161.05
X92.9Y-179.4
X93.25Y-191.25
X93.7Y-154.7
X94.0Y-182.5
X94.0Y-183.5
X94.08Y-20.6
X94.08Y-21.6
X94.08Y-22.6
X94.08Y-23.6
X94.08Y-24.6
X94.68Y-53.5
X94.75Y-116.75
X94.75Y-118.0
X94.75Y-122.0
X94.75Y-123.25
X95.0Y-182.5
X95.0Y-183.5
X95.08Y-20.6
X95.08Y-21.6
X95.08Y-22.6
X95.08Y-23.6
X95.08Y-24.6
X96.0Y-116.75
X96.0Y-118.0
X96.0Y-122.0
X96.0Y-123.25
X96.0Y-157.5
X96.0Y-182.5
X96.0Y-183.5
X96.08Y-20.6
X96.08Y-21.6
X96.08Y-22.6
X96.08Y-23.6
X96.08Y-24.6
X96.78Y-78.6
X97.0Y-116.75
X97.0Y-118.0
X97.0Y-122.0
X97.0Y-123.25
X97.03Y-59.25
X97.03Y-61.75
X97.03Y-66.75
X97.08Y-64.3
X97.28Y-81.4
X97.5Y-132.55
X97.5Y-137.8
X97.68Y-65.7
X97.88Y-60.5
X97.88Y-63.1
X97.98Y-71.4
X98.0Y-116.75
X98.0Y-118.0
X98.0Y-122.0
X98.0Y-123.25
X98.0Y-181.2
X98.08Y-58.1
X98.08Y-68.7
X98.58Y-20.6
X98.58Y-21.6
X98.58Y-22.6
X98.58Y-23.6
X98.58Y-24.6
X98.75Y-132.55
X98.75Y-137.8
X99.28Y-69.9
X99.5Y-131.25
X99.58Y-20.6
X99.58Y-21.6
X99.58Y-22.6
X99.58Y-23.6
X99.58Y-24.6
X99.73Y-90.9
X99.73Y-91.9
X99.73Y-92.85
X99.73Y-97.2
X100.1Y-132.55
X100.1Y-137.8
X100.48Y-58.1
X100.48Y-60.5
X100.48Y-63.1
X100.48Y-65.7
X100.5Y-191.25
X100.58Y-20.6
X100.58Y-21.6
X100.58Y-22.6
X100.58Y-23.6
X100.58Y-24.6
X101.1Y-154.45
X101.1Y-169.5
X101.35Y-132.55
X101.35Y-137.8
X101.5Y-182.75
X102.28Y-59.3
X102.28Y-61.9
X102.28Y-64.3
X102.28Y-66.7
X102.28Y-84.9
X102.7Y-132.55
X102.7Y-164.2
X103.08Y-20.6
X103.08Y-21.6
X103.08Y-22.6
X103.08Y-23.6
X103.08Y-24.6
X103.1Y-155.0
X103.155Y-71.025
X103.28Y-68.9
X103.5Y-188.0
X103.5Y-189.0
X103.5Y-190.0
X103.95Y-132.55
X104.08Y-20.6
X104.08Y-21.6
X104.08Y-22.6
X104.08Y-23.6
X104.08Y-24.6
X104.28Y-53.5
X105.08Y-20.6
X105.08Y-21.6
X105.08Y-22.6
X105.08Y-23.6
X105.08Y-24.6
X105.08Y-69.7
X105.28Y-75.05
X105.3Y-132.55
X105.4Y-152.35
X106.3Y-136.4
X106.3Y-137.65
X106.3Y-139.0
X106.3Y-140.25
X106.55Y-132.55
X106.98Y-72.5
X107.68Y-53.5
X108.48Y-88.1
X108.5Y-188.0
X108.5Y-189.0
X108.5Y-190.0
X108.68Y-80.9
X108.78Y-75.8
X109.4Y-154.4
X109.7Y-123.5
X110.3Y-161.45
X111.08Y-102.6
X111.2Y-165.2
X112.48Y-106.2
X113.0Y-183.75
X113.0Y-189.5
X115.15Y-154.15
X115.4Y-179.4
X115.5Y-183.75
X115.5Y-189.5
X115.88Y-87.9
X117.6Y-132.45
X117.6Y-137.7
X118.0Y-183.75
X118.0Y-189.5
X118.4Y-167.8
X118.527Y-151.2
X118.75Y-181.0
X118.85Y-132.45
X118.85Y-137.7
X120.0Y-181.0
X120.2Y-132.45
X120.2Y-137.7
X120.5Y-183.75
X120.5Y-189.5
X121.25Y-181.0
X121.45Y-132.45
X121.45Y-137.7
X121.7Y-154.5
X122.5Y-181.0
X122.735Y-39.445
X122.8Y-132.45
X123.0Y-183.75
X123.0Y-189.5
X123.75Y-175.75
X123.75Y-177.0
X123.75Y-178.25
X123.75Y-179.5
X123.75Y-181.0
X123.85Y-170.85
X123.85Y-172.15
X123.85Y-173.4
X123.9Y-169.6
X124.05Y-132.45
X125.15Y-169.55
X125.15Y-170.85
X125.15Y-172.15
X125.4Y-132.45
X125.8Y-149.45
X125.9Y-157.25
X126.4Y-137.5
X126.4Y-138.85
X126.4Y-140.1
X126.45Y-169.55
X126.45Y-170.85
X126.45Y-172.15
X126.6Y-132.45
X127.8Y-149.45
X128.485Y-53.445
X128.9Y-123.4
X129.55Y-149.45
X130.0Y-129.95
X130.5Y-164.8
X131.085Y-20.545
X131.085Y-21.545
X131.085Y-22.545
X131.085Y-23.545
X131.085Y-24.545
X131.685Y-53.445
X131.75Y-116.75
X131.75Y-118.0
X131.75Y-122.0
X131.75Y-123.25
X132.085Y-20.545
X132.085Y-21.545
X132.085Y-22.545
X132.085Y-23.545
X132.085Y-24.545
X132.6Y-151.35
X133.0Y-116.75
X133.0Y-118.0
X133.0Y-122.0
X133.0Y-123.25
X133.085Y-20.545
X133.085Y-21.545
X133.085Y-22.545
X133.085Y-23.545
X133.085Y-24.545
X133.785Y-78.545
X134.0Y-116.75
X134.0Y-118.0
X134.0Y-122.0
X134.0Y-123.25
X134.035Y-59.195
X134.035Y-61.695
X134.035Y-66.695
X134.085Y-64.245
X134.285Y-81.345
X134.6Y-129.45
X134.685Y-65.645
X134.885Y-60.445
X134.885Y-63.045
X134.985Y-71.345
X135.0Y-116.75
X135.0Y-118.0
X135.0Y-122.0
X135.0Y-123.25
X135.085Y-58.045
X135.085Y-68.645
X135.5Y-132.8
X135.585Y-20.545
X135.585Y-21.545
X135.585Y-22.545
X135.585Y-23.545
X135.585Y-24.545
X136.285Y-69.845
X136.585Y-20.545
X136.585Y-21.545
X136.585Y-22.545
X136.585Y-23.545
X136.585Y-24.545
X136.735Y-90.845
X136.735Y-91.845
X136.735Y-92.795
X136.735Y-97.145
X136.75Y-131.25
X137.0Y-150.55
X137.485Y-58.045
X137.485Y-60.445
X137.485Y-63.045
X137.485Y-65.645
X137.585Y-20.545
X137.585Y-21.545
X137.585Y-22.545
X137.585Y-23.545
X137.585Y-24.545
X137.95Y-152.9
X138.6Y-129.45
X138.8Y-168.6
X139.285Y-59.245
X139.285Y-61.845
X139.285Y-64.245
X139.285Y-66.645
X139.285Y-84.845
X139.4Y-161.65
X140.0Y-152.6
X140.085Y-20.545
X140.085Y-21.545
X140.085Y-22.545
X140.085Y-23.545
X140.085Y-24.545
X140.16Y-70.97
X140.285Y-68.845
X140.3Y-130.1
X141.085Y-20.545
X141.085Y-21.545
X141.085Y-22.545
X141.085Y-23.545
X141.085Y-24.545
X141.285Y-53.445
X141.75Y-133.2
X142.085Y-20.545
X142.085Y-21.545
X142.085Y-22.545
X142.085Y-23.545
X142.085Y-24.545
X142.085Y-69.645
X142.285Y-74.995
X143.985Y-72.445
X144.685Y-53.445
X145.485Y-88.045
X145.685Y-80.845
X145.785Y-75.745
X148.085Y-102.545
X149.485Y-106.145
X152.885Y-87.845
X153.0Y-148.3
X157.25Y-102.75
X157.6Y-97.65
X157.75Y-93.75
X158.75Y-108.0
X159.0Y-103.0
X159.0Y-105.25
X159.25Y-93.75
X160.25Y-101.25
X160.9Y-93.75
X162.15Y-181.05
X162.45Y-172.25
X162.5Y-93.75
X163.4Y-37.7
X163.8Y-170.1
X163.8Y-173.95
X164.25Y-93.75
X164.5Y-107.0
X164.5Y-108.0
X164.5Y-109.0
X164.55Y-167.5
X164.6Y-164.9
X165.5Y-107.0
X165.5Y-108.0
X165.5Y-109.0
X165.5Y-169.25
X165.85Y-132.5
X166.5Y-108.0
X166.5Y-109.0
X167.5Y-36.9
X167.5Y-170.1
X167.7Y-175.3
X168.0Y-102.5
X168.0Y-103.5
X168.0Y-104.5
X168.0Y-105.5
X168.35Y-47.45
X168.4Y-118.35
X168.4Y-122.5
X168.5Y-82.5
X168.75Y-35.75
X168.9Y-54.5
X168.95Y-170.5
X169.0Y-102.5
X169.0Y-103.5
X169.0Y-104.5
X169.0Y-105.5
X169.65Y-118.35
X169.65Y-122.5
X169.875Y-82.625
X169.95Y-172.25
X170.0Y-42.5
X170.1Y-181.1
X170.5Y-47.0
X171.0Y-118.35
X171.0Y-122.5
X171.2Y-94.75
X171.85Y-103.7
X172.25Y-118.35
X172.25Y-122.5
X172.4Y-33.8
X172.4Y-148.6
X172.5Y-35.6
X172.8Y-91.1
X173.3Y-29.2
X173.6Y-118.35
X173.6Y-122.5
X173.9Y-32.9
X174.1Y-132.4
X174.25Y-36.75
X174.45Y-95.4
X174.7Y-101.3
X174.85Y-118.35
X174.85Y-122.5
X175.2Y-44.375
X175.8Y-91.85
X176.2Y-118.35
X176.2Y-122.5
X176.8Y-77.4
X177.0Y-180.4
X177.1Y-81.6
X177.45Y-118.35
X177.45Y-122.5
X177.65Y-71.0
X177.9Y-73.35
X178.5Y-91.0
X178.7Y-182.5
X179.3Y-84.5
X179.8Y-68.8
X180.7Y-70.75
X180.8Y-69.6
X181.25Y-94.25
X181.25Y-95.25
X182.2Y-78.6
X182.25Y-94.25
X182.25Y-95.25
X182.65Y-72.55
X182.85Y-82.2
X183.0Y-99.5
X183.0Y-100.5
X183.5Y-105.5
X183.8Y-75.0
X184.0Y-59.0
X184.0Y-99.5
X184.0Y-100.5
X184.3Y-156.3
X184.5Y-62.4
X184.503Y-94.006
X185.0Y-99.5
X185.0Y-100.5
X185.2Y-85.8
X185.6Y-44.8
X185.8Y-31.9
X186.0Y-99.5
X186.0Y-100.5
X186.0Y-106.75
X186.1Y-84.3
X186.25Y-94.0
X186.3Y-83.0
X186.4Y-36.2
X186.8Y-82.0
X187.0Y-99.5
X187.0Y-100.5
X187.4Y-31.7
X187.8Y-81.0
X188.0Y-99.5
X188.0Y-100.5
X188.5Y-106.75
X188.75Y-94.0
X189.0Y-99.5
X189.0Y-100.5
X189.45Y-86.6
X190.0Y-99.5
X190.0Y-100.5
X190.4Y-70.2
X190.5Y-106.75
X190.8Y-89.2
X191.0Y-94.0
X191.0Y-99.5
X191.0Y-100.5
X191.75Y-74.0
X192.4Y-66.4
X192.75Y-69.0
X192.75Y-67.5
X192.75Y-70.5
X193.2Y-76.4
X193.25Y-49.0
X193.4Y-59.5
X193.5Y-93.5
X193.5Y-94.25
X193.5Y-95.0
X193.5Y-95.75
X194.0Y-56.0
X194.35Y-88.65
X194.45Y-109.2
X194.85Y-105.45
X195.0Y-43.0
X195.0Y-44.0
X195.0Y-45.0
X195.0Y-85.8
X195.0Y-90.4
X195.4Y-118.35
X195.5Y-46.5
X195.5Y-54.75
X195.5Y-63.0
X195.75Y-96.5
X195.8Y-91.2
X196.0Y-43.0
X196.0Y-44.0
X196.0Y-45.0
X196.3Y-101.0
X196.5Y-97.272
X196.5Y-98.122
X196.6Y-91.8
X196.75Y-88.25
X197.0Y-57.5
X197.0Y-99.075
X197.0Y-99.925
X197.25Y-49.25
X197.25Y-51.25
X197.25Y-52.75
X197.25Y-55.75
X197.25Y-60.5
X197.25Y-62.25
X197.25Y-70.5
X197.5Y-64.0
X197.5Y-66.25
X198.5Y-38.0
X198.5Y-39.0
X198.5Y-40.0
X198.5Y-41.0
X199.5Y-38.0
X199.5Y-39.0
X199.5Y-40.0
X199.5Y-41.0
X199.75Y-109.2
X200.2Y-154.8
X201.25Y-59.25
X201.25Y-89.0
X201.5Y-47.0
X201.5Y-47.8
X201.5Y-46.2
X201.5Y-94.25
X201.5Y-98.75
X201.75Y-54.25
X201.75Y-100.75
X201.75Y-102.25
X201.75Y-104.0
X201.75Y-105.75
X202.0Y-51.672
X202.0Y-52.522
X202.0Y-56.472
X202.0Y-57.322
X202.0Y-72.25
X202.0Y-73.75
X202.25Y-68.75
X202.4Y-78.4
X202.75Y-70.5
X202.75Y-75.0
X202.75Y-76.5
X203.0Y-43.25
X203.0Y-44.25
X203.0Y-45.25
X203.2Y-132.3
X203.25Y-49.825
X203.25Y-50.675
X203.25Y-54.672
X203.25Y-55.522
X203.75Y-59.75
X203.8Y-66.6
X204.0Y-43.25
X204.0Y-44.25
X204.0Y-45.25
X204.25Y-53.5
X204.4Y-93.9
X204.449Y-46.449
X204.5Y-69.0
X204.5Y-86.25
X204.75Y-98.5
X205.0Y-76.0
X205.051Y-47.051
X205.25Y-102.5
X205.25Y-104.25
X205.25Y-106.0
X205.5Y-66.5
X205.9Y-144.2
X207.0Y-39.0
X207.0Y-40.0
X207.0Y-41.0
X207.75Y-107.5
X209.3Y-129.0
X209.75Y-78.0
X209.75Y-94.75
X210.0Y-104.0
X210.25Y-66.25
X210.25Y-81.75
X210.25Y-98.75
X210.4Y-76.0
X210.5Y-84.8
X210.5Y-86.2
X210.5Y-100.75
X210.65Y-123.4
X210.8Y-74.8
X211.0Y-89.3
X211.0Y-93.0
X211.1Y-88.1
X211.25Y-94.5
X211.5Y-42.0
X211.5Y-43.0
X211.5Y-44.0
X211.5Y-45.0
X211.5Y-46.0
X211.5Y-47.0
X211.5Y-78.5
X212.2Y-62.1
X212.25Y-70.5
X212.25Y-79.25
X212.5Y-44.0
X212.5Y-45.0
X212.5Y-46.0
X213.25Y-69.5
X213.25Y-73.5
X215.7Y-74.8
X215.8Y-75.8
X216.0Y-69.75
X216.1Y-154.6
X216.2Y-51.8
X217.2Y-123.5
X217.3Y-92.7
X217.4Y-86.9
X217.7Y-80.8
X217.7Y-179.8
X218.2Y-62.9
X218.5Y-38.3
X219.25Y-110.75
X219.75Y-74.25
X221.5Y-171.9
X221.6Y-123.5
X221.75Y-74.5
X223.3Y-44.8
X223.95Y-132.35
X224.7Y-123.0
X224.9Y-102.1
X225.4Y-107.2
X225.75Y-110.75
X227.1Y-74.5
X228.1Y-93.0
X229.2Y-95.2
X229.3Y-130.2
X230.8Y-123.3
X231.1Y-101.6
X232.3Y-109.0
X233.2Y-166.4
X236.0Y-91.8
X236.0Y-139.0
X236.6Y-93.6
X236.7Y-125.2
X236.8Y-129.75
X237.2Y-175.8
X237.4Y-86.5
X237.5Y-38.8
X237.6Y-103.5
X238.0Y-68.5
X238.1Y-65.4
X238.2Y-109.1
X238.5Y-41.6
X239.25Y-68.0
X241.2Y-123.5
X242.0Y-92.0
X242.3Y-36.15
X242.3Y-37.15
X242.75Y-90.0
X243.0Y-57.7
X243.3Y-103.0
X243.5Y-89.0
X243.6Y-107.3
X244.1Y-126.5
X244.2Y-39.7
X246.3Y-167.1
X247.5Y-122.5
X247.55Y-131.5
X247.75Y-34.5
X248.2Y-99.4
X248.75Y-34.5
X249.6Y-106.1
X250.9Y-54.3
X251.5Y-98.75
X252.3Y-110.3
X253.1Y-36.05
X255.2Y-45.1
X256.3Y-85.1
X256.4Y-72.4
X257.7Y-31.3
X259.2Y-31.2
X260.6Y-31.2
X261.1Y-57.7
X262.0Y-31.2
X262.0Y-90.4
X262.2Y-44.2
X263.6Y-39.4
T2
X85.05Y-156.54
X85.05Y-157.7
X85.05Y-158.86
X85.985Y-155.65
X85.985Y-156.54
X85.985Y-157.7
X85.985Y-158.86
X85.985Y-159.75
X87.215Y-155.65
X87.215Y-156.54
X87.215Y-157.7
X87.215Y-158.86
X87.215Y-159.75
X88.15Y-156.54
X88.15Y-157.7
X88.15Y-158.86
X162.439Y-100.965
X163.009Y-100.315
X163.009Y-101.615
X163.579Y-100.965
X164.149Y-100.315
X164.149Y-101.615
X164.719Y-100.965
X165.289Y-100.315
X165.289Y-101.615
X165.859Y-100.965
T3
X46.775Y-25.0
X46.775Y-115.5
X46.775Y-139.8
X46.775Y-187.8
X47.72Y-22.72
X47.72Y-27.28
X47.72Y-113.22
X47.72Y-117.78
X47.72Y-137.52
X47.72Y-142.08
X47.72Y-185.52
X47.72Y-190.08
X50.0Y-21.775
X50.0Y-28.225
X50.0Y-112.275
X50.0Y-118.725
X50.0Y-136.575
X50.0Y-143.025
X50.0Y-184.575
X50.0Y-191.025
X52.28Y-22.72
X52.28Y-27.28
X52.28Y-113.22
X52.28Y-117.78
X52.28Y-137.52
X52.28Y-142.08
X52.28Y-185.52
X52.28Y-190.08
X53.225Y-25.0
X53.225Y-115.5
X53.225Y-139.8
X53.225Y-187.8
X57.7Y-120.0
X57.75Y-135.2
X58.9Y-120.0
X58.95Y-135.2
X60.1Y-120.0
X60.15Y-135.2
X61.3Y-120.0
X61.35Y-135.2
X62.5Y-120.0
X62.55Y-135.2
X63.7Y-120.0
X63.75Y-135.2
X64.9Y-120.0
X64.95Y-135.2
X66.1Y-120.0
X66.15Y-135.2
X71.775Y-25.0
X71.775Y-115.5
X72.72Y-22.72
X72.72Y-27.28
X72.72Y-113.22
X72.72Y-117.78
X75.0Y-21.775
X75.0Y-28.225
X75.0Y-112.275
X75.0Y-118.725
X77.28Y-22.72
X77.28Y-27.28
X77.28Y-113.22
X77.28Y-117.78
X77.35Y-135.2
X78.225Y-25.0
X78.225Y-115.5
X78.55Y-135.2
X79.75Y-135.2
X80.95Y-135.2
X81.0Y-27.1
X81.0Y-28.3
X81.0Y-29.5
X81.0Y-30.7
X81.0Y-31.9
X81.0Y-33.1
X81.0Y-34.3
X81.0Y-35.5
X81.0Y-59.9
X81.0Y-61.1
X81.0Y-62.3
X81.0Y-63.5
X81.0Y-64.7
X81.0Y-65.9
X81.0Y-67.1
X81.0Y-68.3
X81.0Y-98.2
X81.0Y-99.4
X81.0Y-100.6
X81.0Y-101.8
X81.0Y-103.0
X81.0Y-104.2
X81.0Y-105.4
X81.0Y-106.6
X82.15Y-135.2
X83.35Y-135.2
X83.775Y-25.0
X83.775Y-115.5
X84.55Y-135.2
X84.72Y-22.72
X84.72Y-27.28
X84.72Y-113.22
X84.72Y-117.78
X85.75Y-135.2
X87.0Y-21.775
X87.0Y-28.225
X87.0Y-112.275
X87.0Y-118.725
X89.28Y-22.72
X89.28Y-27.28
X89.28Y-113.22
X89.28Y-117.78
X90.225Y-25.0
X90.225Y-115.5
X94.8Y-120.0
X96.0Y-120.0
X97.2Y-120.0
X97.75Y-135.2
X98.4Y-120.0
X98.95Y-135.2
X99.6Y-120.0
X100.15Y-135.2
X100.8Y-120.0
X101.35Y-135.2
X102.0Y-120.0
X102.55Y-135.2
X103.2Y-120.0
X103.75Y-135.2
X104.95Y-135.2
X106.15Y-135.2
X108.775Y-25.0
X108.775Y-115.5
X109.72Y-22.72
X109.72Y-27.28
X109.72Y-113.22
X109.72Y-117.78
X112.0Y-21.775
X112.0Y-28.225
X112.0Y-112.275
X112.0Y-118.725
X114.28Y-22.72
X114.28Y-27.28
X114.28Y-113.22
X114.28Y-117.78
X115.225Y-25.0
X115.225Y-115.5
X117.85Y-135.2
X118.0Y-27.0
X118.0Y-28.2
X118.0Y-29.4
X118.0Y-30.6
X118.0Y-31.8
X118.0Y-33.0
X118.0Y-34.2
X118.0Y-35.4
X118.0Y-59.9
X118.0Y-61.1
X118.0Y-62.3
X118.0Y-63.5
X118.0Y-64.7
X118.0Y-65.9
X118.0Y-67.1
X118.0Y-68.3
X118.0Y-98.2
X118.0Y-99.4
X118.0Y-100.6
X118.0Y-101.8
X118.0Y-103.0
X118.0Y-104.2
X118.0Y-105.4
X118.0Y-106.6
X119.05Y-135.2
X120.25Y-135.2
X120.775Y-25.0
X120.775Y-115.5
X121.45Y-135.2
X121.72Y-22.72
X121.72Y-27.28
X121.72Y-113.22
X121.72Y-117.78
X122.65Y-135.2
X123.85Y-135.2
X124.0Y-21.775
X124.0Y-28.225
X124.0Y-112.275
X124.0Y-118.725
X125.05Y-135.2
X126.25Y-135.2
X126.28Y-22.72
X126.28Y-27.28
X126.28Y-113.22
X126.28Y-117.78
X127.225Y-25.0
X127.225Y-115.5
X131.8Y-120.0
X133.0Y-120.0
X134.2Y-120.0
X135.4Y-120.0
X136.05Y-135.2
X136.6Y-120.0
X137.8Y-120.0
X138.45Y-135.2
X139.0Y-120.0
X140.2Y-120.0
X140.85Y-135.2
X143.25Y-135.2
X145.775Y-25.0
X145.775Y-115.5
X145.775Y-139.8
X145.775Y-187.8
X146.72Y-22.72
X146.72Y-27.28
X146.72Y-113.22
X146.72Y-117.78
X146.72Y-137.52
X146.72Y-142.08
X146.72Y-185.52
X146.72Y-190.08
X149.0Y-21.775
X149.0Y-28.225
X149.0Y-112.275
X149.0Y-118.725
X149.0Y-136.575
X149.0Y-143.025
X149.0Y-184.575
X149.0Y-191.025
X151.28Y-22.72
X151.28Y-27.28
X151.28Y-113.22
X151.28Y-117.78
X151.28Y-137.52
X151.28Y-142.08
X151.28Y-185.52
X151.28Y-190.08
X152.225Y-25.0
X152.225Y-115.5
X152.225Y-139.8
X152.225Y-187.8
X153.5Y-150.9
X153.5Y-152.1
X153.5Y-153.3
X153.5Y-154.5
X153.5Y-155.7
X153.5Y-156.9
X153.5Y-158.1
X153.5Y-159.3
X153.5Y-174.8
X153.5Y-176.0
X153.5Y-177.2
X153.5Y-178.4
X153.5Y-179.6
X153.5Y-180.8
X153.5Y-182.0
X153.5Y-183.2
X155.0Y-27.0
X155.0Y-28.2
X155.0Y-29.4
X155.0Y-30.6
X155.0Y-31.8
X155.0Y-33.0
X155.0Y-34.2
X155.0Y-35.4
X155.0Y-59.9
X155.0Y-61.1
X155.0Y-62.3
X155.0Y-63.5
X155.0Y-64.7
X155.0Y-65.9
X155.0Y-67.1
X155.0Y-68.3
X155.0Y-98.2
X155.0Y-99.4
X155.0Y-100.6
X155.0Y-101.8
X155.0Y-103.0
X155.0Y-104.2
X155.0Y-105.4
X155.0Y-106.6
X156.5Y-150.9
X156.5Y-152.1
X156.5Y-153.3
X156.5Y-154.5
X156.5Y-155.7
X156.5Y-156.9
X156.5Y-158.1
X156.5Y-159.3
X156.5Y-174.8
X156.5Y-176.0
X156.5Y-177.2
X156.5Y-178.4
X156.5Y-179.6
X156.5Y-180.8
X156.5Y-182.0
X156.5Y-183.2
X157.775Y-25.0
X157.775Y-115.5
X157.775Y-139.8
X157.775Y-187.8
X158.72Y-22.72
X158.72Y-27.28
X158.72Y-113.22
X158.72Y-117.78
X158.72Y-137.52
X158.72Y-142.08
X158.72Y-185.52
X158.72Y-190.08
X161.0Y-21.775
X161.0Y-28.225
X161.0Y-112.275
X161.0Y-118.725
X161.0Y-136.575
X161.0Y-143.025
X161.0Y-184.575
X161.0Y-191.025
X163.28Y-22.72
X163.28Y-27.28
X163.28Y-113.22
X163.28Y-117.78
X163.28Y-137.52
X163.28Y-142.08
X163.28Y-185.52
X163.28Y-190.08
X164.225Y-25.0
X164.225Y-115.5
X164.225Y-139.8
X164.225Y-187.8
X166.15Y-135.35
X168.55Y-135.35
X168.8Y-120.0
X170.0Y-120.0
X170.95Y-135.35
X171.2Y-120.0
X172.4Y-120.0
X173.35Y-135.35
X173.6Y-120.0
X174.8Y-120.0
X176.0Y-120.0
X177.2Y-120.0
X200.7Y-120.0
X201.9Y-120.0
X203.1Y-120.0
X204.3Y-120.0
X205.5Y-120.0
X206.7Y-120.0
X207.9Y-120.0
X209.1Y-120.0
X220.85Y-120.0
X223.25Y-120.0
X225.65Y-120.0
X228.05Y-120.0
X230.0Y-135.3
X231.2Y-135.3
X232.4Y-135.3
X233.6Y-135.3
X234.8Y-135.3
X236.0Y-135.3
X237.2Y-135.3
X238.4Y-135.3
X240.1Y-120.0
X241.025Y-139.8
X241.05Y-187.73
X241.97Y-137.52
X241.97Y-142.08
X241.995Y-185.45
X241.995Y-190.011
X242.5Y-120.0
X244.25Y-136.575
X244.25Y-143.025
X244.275Y-184.505
X244.275Y-190.955
X244.9Y-120.0
X246.53Y-137.52
X246.53Y-142.08
X246.555Y-185.45
X246.555Y-190.011
X247.3Y-120.0
X247.475Y-139.8
X247.5Y-187.73
X256.775Y-25.0
X256.775Y-115.5
X257.72Y-22.72
X257.72Y-27.28
X257.72Y-113.22
X257.72Y-117.78
X260.0Y-21.775
X260.0Y-28.225
X260.0Y-112.275
X260.0Y-118.725
X262.28Y-22.72
X262.28Y-27.28
X262.28Y-113.22
X262.28Y-117.78
X263.225Y-25.0
X263.225Y-115.5
T4
X158.996Y-40.536
X158.996Y-42.536
X158.996Y-44.536
X158.996Y-46.536
X158.996Y-48.536
X158.996Y-50.536
X158.996Y-52.536
X158.996Y-54.536
X158.996Y-56.536
X158.996Y-58.536
X181.003Y-40.536
X181.003Y-42.536
X181.003Y-44.536
X181.003Y-46.536
X181.003Y-48.536
X181.003Y-50.536
X181.003Y-52.536
X181.003Y-54.536
X181.003Y-56.536
X181.003Y-58.536
T5
X70.5Y-96.15
X70.5Y-99.96
X70.5Y-103.77
X71.5Y-97.42
X71.5Y-98.69
X71.5Y-101.23
X71.5Y-102.5
X107.58Y-96.25
X107.58Y-100.06
X107.58Y-103.87
X108.58Y-97.52
X108.58Y-98.79
X108.58Y-101.33
X108.58Y-102.6
X144.585Y-96.195
X144.585Y-100.005
X144.585Y-103.815
X145.585Y-97.465
X145.585Y-98.735
X145.585Y-101.275
X145.585Y-102.545
X147.9Y-155.23
X147.9Y-159.04
X147.9Y-162.85
X148.9Y-156.5
X148.9Y-157.77
X148.9Y-160.31
X148.9Y-161.58
X161.1Y-151.79
X161.1Y-153.06
X161.1Y-155.6
X161.1Y-156.87
X161.5Y-72.25
X161.5Y-88.0
X162.1Y-150.52
X162.1Y-154.33
X162.1Y-158.14
X162.77Y-73.25
X162.77Y-89.0
X164.04Y-73.25
X164.04Y-89.0
X165.31Y-72.25
X165.31Y-88.0
X166.58Y-73.25
X166.58Y-89.0
X167.85Y-73.25
X167.85Y-89.0
X169.12Y-72.25
X169.12Y-88.0
X200.384Y-114.5
X201.654Y-115.5
X202.924Y-115.5
X204.194Y-114.5
X205.464Y-115.5
X206.734Y-115.5
X208.004Y-114.5
X219.307Y-114.5
X220.577Y-115.5
X221.847Y-115.5
X223.117Y-114.5
X224.387Y-115.5
X225.657Y-115.5
X226.927Y-114.5
X238.23Y-114.5
X239.5Y-115.5
X240.77Y-115.5
X242.04Y-114.5
X243.31Y-115.5
X244.58Y-115.5
X245.85Y-114.5
T6
X203.03Y-33.655
X204.31Y-36.195
X205.57Y-33.655
X206.85Y-36.195
X208.11Y-33.655
X209.39Y-36.195
X210.65Y-33.655
X211.93Y-36.195
X213.19Y-33.655
X214.47Y-36.195
X222.53Y-33.655
X223.81Y-36.195
X225.07Y-33.655
X226.35Y-36.195
X227.61Y-33.655
X228.89Y-36.195
X230.15Y-33.655
X231.43Y-36.195
X232.69Y-33.655
X233.97Y-36.195
T7
X242.75Y-29.63
X242.75Y-32.25
X245.25Y-29.63
X245.25Y-32.25
X247.25Y-29.63
X247.25Y-32.25
X249.75Y-29.63
X249.75Y-32.25
T8
X158.75Y-80.5
X161.25Y-80.5
X163.75Y-80.5
X166.25Y-80.5
X196.5Y-24.25
X196.5Y-26.75
X196.5Y-29.25
X196.5Y-31.75
T9
X47.875Y-149.65
X47.875Y-152.15
X48.3Y-32.725
X48.3Y-35.265
X48.3Y-37.805
X49.81Y-41.995
X49.81Y-44.535
X49.81Y-47.075
X49.81Y-49.615
X49.81Y-52.155
X49.81Y-54.695
X49.81Y-67.395
X49.81Y-69.935
X49.81Y-72.475
X49.81Y-75.015
X49.81Y-77.555
X49.81Y-80.095
X49.81Y-82.635
X49.81Y-85.175
X49.81Y-87.715
X50.84Y-32.725
X50.84Y-35.265
X50.84Y-37.805
X53.62Y-41.995
X53.62Y-44.535
X56.16Y-41.995
X56.16Y-44.535
X59.382Y-102.75
X59.382Y-113.75
X61.24Y-41.995
X61.24Y-44.535
X63.78Y-41.995
X63.78Y-44.535
X64.382Y-102.75
X64.382Y-113.75
X68.224Y-184.963
X68.224Y-187.503
X68.86Y-41.995
X68.86Y-44.535
X69.25Y-171.0
X70.764Y-184.963
X70.764Y-187.503
X71.4Y-41.995
X71.4Y-44.535
X73.304Y-184.963
X73.304Y-187.503
X74.25Y-171.0
X75.21Y-41.995
X75.21Y-44.535
X75.21Y-47.075
X75.21Y-49.615
X75.21Y-52.155
X75.21Y-54.695
X75.21Y-77.555
X75.21Y-80.095
X75.21Y-82.635
X75.21Y-85.175
X75.21Y-87.715
X75.844Y-184.963
X75.844Y-187.503
X77.75Y-93.175
X77.75Y-95.715
X77.75Y-98.255
X77.75Y-100.795
X77.75Y-103.335
X85.38Y-32.825
X85.38Y-35.365
X85.38Y-37.905
X86.89Y-42.095
X86.89Y-44.635
X86.89Y-47.175
X86.89Y-49.715
X86.89Y-52.255
X86.89Y-54.795
X86.89Y-67.495
X86.89Y-70.035
X86.89Y-72.575
X86.89Y-75.115
X86.89Y-77.655
X86.89Y-80.195
X86.89Y-82.735
X86.89Y-85.275
X86.89Y-87.815
X87.0Y-176.882
X87.0Y-181.882
X87.92Y-32.825
X87.92Y-35.365
X87.92Y-37.905
X90.7Y-42.095
X90.7Y-44.635
X93.24Y-42.095
X93.24Y-44.635
X96.462Y-102.85
X96.462Y-113.85
X98.32Y-42.095
X98.32Y-44.635
X100.86Y-42.095
X100.86Y-44.635
X101.462Y-102.85
X101.462Y-113.85
X105.94Y-42.095
X105.94Y-44.635
X106.0Y-184.132
X106.0Y-189.132
X107.06Y-157.2
X108.48Y-42.095
X108.48Y-44.635
X109.6Y-157.2
X112.29Y-42.095
X112.29Y-44.635
X112.29Y-47.175
X112.29Y-49.715
X112.29Y-52.255
X112.29Y-54.795
X112.29Y-77.655
X112.29Y-80.195
X112.29Y-82.735
X112.29Y-85.275
X112.29Y-87.815
X113.32Y-157.75
X113.32Y-160.29
X114.83Y-93.275
X114.83Y-95.815
X114.83Y-98.355
X114.83Y-100.895
X114.83Y-103.435
X115.86Y-157.75
X115.86Y-160.29
X118.4Y-157.75
X118.4Y-160.29
X120.94Y-157.75
X120.94Y-160.29
X122.385Y-32.77
X122.385Y-35.31
X122.385Y-37.85
X123.48Y-157.75
X123.48Y-160.29
X123.895Y-42.04
X123.895Y-44.58
X123.895Y-47.12
X123.895Y-49.66
X123.895Y-52.2
X123.895Y-54.74
X123.895Y-67.44
X123.895Y-69.98
X123.895Y-72.52
X123.895Y-75.06
X123.895Y-77.6
X123.895Y-80.14
X123.895Y-82.68
X123.895Y-85.22
X123.895Y-87.76
X124.925Y-32.77
X124.925Y-35.31
X124.925Y-37.85
X127.705Y-42.04
X127.705Y-44.58
X130.245Y-42.04
X130.245Y-44.58
X133.467Y-102.795
X133.467Y-113.795
X135.325Y-42.04
X135.325Y-44.58
X137.865Y-42.04
X137.865Y-44.58
X138.467Y-102.795
X138.467Y-113.795
X142.2Y-151.17
X142.2Y-153.71
X142.2Y-156.25
X142.2Y-158.79
X142.2Y-161.33
X142.945Y-42.04
X142.945Y-44.58
X145.485Y-42.04
X145.485Y-44.58
X149.295Y-42.04
X149.295Y-44.58
X149.295Y-47.12
X149.295Y-49.66
X149.295Y-52.2
X149.295Y-54.74
X149.295Y-77.6
X149.295Y-80.14
X149.295Y-82.68
X149.295Y-85.22
X149.295Y-87.76
X151.835Y-93.22
X151.835Y-95.76
X151.835Y-98.3
X151.835Y-100.84
X151.835Y-103.38
X162.9Y-63.48
X162.9Y-66.02
X165.44Y-63.48
X165.44Y-66.02
X167.4Y-146.72
X167.4Y-149.26
X167.4Y-151.8
X167.4Y-154.34
X167.4Y-156.88
X167.98Y-63.48
X167.98Y-66.02
X168.2Y-22.987
X168.2Y-26.924
X170.52Y-63.48
X170.52Y-66.02
X170.74Y-22.987
X170.74Y-26.924
X170.942Y-110.109
X170.942Y-115.109
X173.06Y-63.48
X173.06Y-66.02
X173.28Y-22.987
X173.28Y-26.924
X175.6Y-66.02
X175.6Y-63.48
X176.9Y-22.987
X176.9Y-26.924
X179.44Y-22.987
X179.44Y-26.924
X180.2Y-89.535
X180.2Y-92.075
X181.98Y-22.987
X181.98Y-26.924
X186.73Y-25.146
X189.23Y-25.146
X253.619Y-112.268
X253.619Y-114.808
X253.619Y-117.348
T10
X174.577Y-138.558
X174.577Y-186.817
X177.117Y-138.558
X177.117Y-186.817
X179.657Y-138.558
X179.657Y-186.817
X182.197Y-138.558
X182.198Y-186.817
X184.737Y-138.558
X184.737Y-186.817
X187.278Y-138.558
X187.278Y-186.817
X189.817Y-186.817
X192.357Y-186.817
X192.357Y-138.558
X194.897Y-138.558
X196.421Y-186.817
X197.438Y-138.558
X198.962Y-186.817
X199.977Y-138.558
X201.501Y-186.817
X202.517Y-138.558
X204.041Y-186.817
X205.058Y-138.558
X206.581Y-186.817
X207.597Y-138.558
X209.122Y-186.817
X210.137Y-138.558
X211.661Y-186.817
X214.201Y-186.817
X216.742Y-186.817
X219.281Y-186.817
T11
X202.125Y-22.405
X204.665Y-22.405
X212.835Y-22.405
X215.375Y-22.405
X221.625Y-22.405
X224.165Y-22.405
X232.335Y-22.405
X234.875Y-22.405
T12
X49.695Y-93.955
X49.695Y-99.035
X50.4Y-168.021
X50.4Y-173.101
X50.4Y-178.181
X57.34Y-31.75
X62.42Y-31.75
X67.5Y-31.75
X70.465Y-140.695
X75.545Y-140.695
X86.775Y-94.055
X86.775Y-99.135
X90.465Y-140.695
X94.42Y-31.805
X95.545Y-140.695
X99.5Y-31.805
X104.58Y-31.805
X110.465Y-140.695
X115.545Y-140.695
X123.78Y-94.0
X123.78Y-99.08
X127.92Y-187.5
X130.465Y-140.695
X131.425Y-31.75
X133.0Y-187.5
X135.545Y-140.695
X136.505Y-31.75
X141.585Y-31.75
X179.451Y-113.03
X184.531Y-113.03
T13
X62.0Y-153.975
X62.0Y-158.975
X62.0Y-168.975
X62.0Y-173.975
X71.0Y-93.48
X71.0Y-106.44
X108.08Y-93.58
X108.08Y-106.54
X127.975Y-177.0
X132.975Y-177.0
X142.975Y-177.0
X145.085Y-93.525
X145.085Y-106.485
X147.975Y-177.0
X148.4Y-152.56
X148.4Y-165.52
X158.83Y-72.75
X158.83Y-88.5
X161.6Y-147.85
X161.6Y-160.81
X171.79Y-72.75
X171.79Y-88.5
X197.714Y-115.0
X210.674Y-115.0
X216.637Y-115.0
X229.597Y-115.0
X235.56Y-115.0
X248.52Y-115.0
T14
X255.3Y-37.4
T15
X201.005Y-30.355
X216.495Y-30.355
X220.505Y-30.355
X235.995Y-30.355
T16
X47.85Y-161.2
X47.9Y-105.75
X52.85Y-161.2
X52.9Y-105.75
X64.0Y-138.5
X64.0Y-143.5
X84.0Y-138.5
X84.0Y-143.5
X84.98Y-105.85
X89.98Y-105.85
X104.0Y-138.5
X104.0Y-143.5
X121.985Y-105.795
X124.0Y-138.5
X124.0Y-143.5
X126.985Y-105.795
X139.465Y-184.695
X139.465Y-189.695
X191.135Y-110.443
X191.135Y-115.443
T17
X239.68Y-26.92
X239.68Y-32.6
X252.82Y-26.92
X252.82Y-32.6
T18
X50.0Y-25.0
X50.0Y-115.5
X50.0Y-139.8
X50.0Y-187.8
X75.0Y-25.0
X75.0Y-115.5
X87.0Y-25.0
X87.0Y-115.5
X112.0Y-25.0
X112.0Y-115.5
X124.0Y-25.0
X124.0Y-115.5
X149.0Y-25.0
X149.0Y-115.5
X149.0Y-139.8
X149.0Y-187.8
X161.0Y-25.0
X161.0Y-115.5
X161.0Y-139.8
X161.0Y-187.8
X244.25Y-139.8
X244.275Y-187.73
X260.0Y-25.0
X260.0Y-115.5
M30
