G04 #@! TF.GenerationSoftware,KiCad,Pcbnew,8.0.8+1*
G04 #@! TF.CreationDate,2025-06-18T22:46:37+00:00*
G04 #@! TF.ProjectId,hw-openmower-universal,68772d6f-7065-46e6-9d6f-7765722d756e,rev?*
G04 #@! TF.SameCoordinates,Original*
G04 #@! TF.FileFunction,Soldermask,Bot*
G04 #@! TF.FilePolarity,Negative*
%FSLAX46Y46*%
G04 Gerber Fmt 4.6, Leading zero omitted, Abs format (unit mm)*
G04 Created by KiCad (PCBNEW 8.0.8+1) date 2025-06-18 22:46:37*
%MOMM*%
%LPD*%
G01*
G04 APERTURE LIST*
%ADD10C,0.100000*%
%ADD11R,1.700000X1.700000*%
%ADD12O,1.700000X1.700000*%
%ADD13C,0.600000*%
%ADD14C,0.900000*%
%ADD15C,8.600000*%
%ADD16R,2.000000X2.000000*%
%ADD17C,2.000000*%
%ADD18O,1.700000X2.000000*%
%ADD19R,2.600000X2.600000*%
%ADD20C,2.600000*%
%ADD21O,1.950000X1.700000*%
%ADD22O,1.700000X1.950000*%
%ADD23C,1.412000*%
%ADD24R,3.800000X3.800000*%
%ADD25C,4.000000*%
%ADD26O,1.727200X2.500000*%
%ADD27C,3.800000*%
%ADD28R,1.500000X1.500000*%
%ADD29C,1.500000*%
%ADD30C,3.000000*%
%ADD31O,3.000000X1.700000*%
%ADD32O,1.700000X3.000000*%
%ADD33C,3.250000*%
%ADD34C,1.602000*%
%ADD35C,1.734000*%
%ADD36C,2.649000*%
%ADD37C,2.350000*%
%ADD38C,3.500000*%
%ADD39C,1.600000*%
%ADD40C,1.100000*%
%ADD41O,8.400000X6.400000*%
%ADD42O,2.000000X1.700000*%
G04 APERTURE END LIST*
D10*
X60500000Y-19250000D02*
X64500000Y-19250000D01*
X64500000Y-24500000D01*
X60500000Y-24500000D01*
X60500000Y-19250000D01*
G36*
X60500000Y-19250000D02*
G01*
X64500000Y-19250000D01*
X64500000Y-24500000D01*
X60500000Y-24500000D01*
X60500000Y-19250000D01*
G37*
X92750000Y-19250000D02*
X97000000Y-19250000D01*
X97000000Y-24500000D01*
X92750000Y-24500000D01*
X92750000Y-19250000D01*
G36*
X92750000Y-19250000D02*
G01*
X97000000Y-19250000D01*
X97000000Y-24500000D01*
X92750000Y-24500000D01*
X92750000Y-19250000D01*
G37*
X134500000Y-19250000D02*
X138500000Y-19250000D01*
X138500000Y-24500000D01*
X134500000Y-24500000D01*
X134500000Y-19250000D01*
G36*
X134500000Y-19250000D02*
G01*
X138500000Y-19250000D01*
X138500000Y-24500000D01*
X134500000Y-24500000D01*
X134500000Y-19250000D01*
G37*
X65000000Y-19250000D02*
X69250000Y-19250000D01*
X69250000Y-24500000D01*
X65000000Y-24500000D01*
X65000000Y-19250000D01*
G36*
X65000000Y-19250000D02*
G01*
X69250000Y-19250000D01*
X69250000Y-24500000D01*
X65000000Y-24500000D01*
X65000000Y-19250000D01*
G37*
X102000000Y-19250000D02*
X106250000Y-19250000D01*
X106250000Y-24500000D01*
X102000000Y-24500000D01*
X102000000Y-19250000D01*
G36*
X102000000Y-19250000D02*
G01*
X106250000Y-19250000D01*
X106250000Y-24500000D01*
X102000000Y-24500000D01*
X102000000Y-19250000D01*
G37*
X129750000Y-19250000D02*
X134000000Y-19250000D01*
X134000000Y-24500000D01*
X129750000Y-24500000D01*
X129750000Y-19250000D01*
G36*
X129750000Y-19250000D02*
G01*
X134000000Y-19250000D01*
X134000000Y-24500000D01*
X129750000Y-24500000D01*
X129750000Y-19250000D01*
G37*
X55750000Y-19250000D02*
X60000000Y-19250000D01*
X60000000Y-24500000D01*
X55750000Y-24500000D01*
X55750000Y-19250000D01*
G36*
X55750000Y-19250000D02*
G01*
X60000000Y-19250000D01*
X60000000Y-24500000D01*
X55750000Y-24500000D01*
X55750000Y-19250000D01*
G37*
X97500000Y-19250000D02*
X101500000Y-19250000D01*
X101500000Y-24500000D01*
X97500000Y-24500000D01*
X97500000Y-19250000D01*
G36*
X97500000Y-19250000D02*
G01*
X101500000Y-19250000D01*
X101500000Y-24500000D01*
X97500000Y-24500000D01*
X97500000Y-19250000D01*
G37*
X139000000Y-19250000D02*
X143250000Y-19250000D01*
X143250000Y-24500000D01*
X139000000Y-24500000D01*
X139000000Y-19250000D01*
G36*
X139000000Y-19250000D02*
G01*
X143250000Y-19250000D01*
X143250000Y-24500000D01*
X139000000Y-24500000D01*
X139000000Y-19250000D01*
G37*
D11*
X168200000Y-22987000D03*
D12*
X170740000Y-22987000D03*
X173280000Y-22987000D03*
D13*
X238900000Y-120000000D03*
X241300000Y-120000000D03*
X243700000Y-120000000D03*
X246100000Y-120000000D03*
X248500000Y-120000000D03*
D14*
X145775000Y-187800000D03*
X146719581Y-185519581D03*
X146719581Y-190080419D03*
X149000000Y-184575000D03*
D15*
X149000000Y-187800000D03*
D14*
X149000000Y-191025000D03*
X151280419Y-185519581D03*
X151280419Y-190080419D03*
X152225000Y-187800000D03*
D16*
X96462323Y-102850000D03*
D17*
X101462323Y-102850000D03*
D16*
X133467323Y-102795000D03*
D17*
X138467323Y-102795000D03*
G36*
G01*
X190080000Y-24396000D02*
X190080000Y-25896000D01*
G75*
G02*
X189830000Y-26146000I-250000J0D01*
G01*
X188630000Y-26146000D01*
G75*
G02*
X188380000Y-25896000I0J250000D01*
G01*
X188380000Y-24396000D01*
G75*
G02*
X188630000Y-24146000I250000J0D01*
G01*
X189830000Y-24146000D01*
G75*
G02*
X190080000Y-24396000I0J-250000D01*
G01*
G37*
D18*
X186730000Y-25146000D03*
D19*
X123780000Y-94000000D03*
D20*
X123780000Y-99080000D03*
D14*
X157775000Y-115500000D03*
X158719581Y-113219581D03*
X158719581Y-117780419D03*
X161000000Y-112275000D03*
D15*
X161000000Y-115500000D03*
D14*
X161000000Y-118725000D03*
X163280419Y-113219581D03*
X163280419Y-117780419D03*
X164225000Y-115500000D03*
G36*
G01*
X195775000Y-23400000D02*
X197225000Y-23400000D01*
G75*
G02*
X197475000Y-23650000I0J-250000D01*
G01*
X197475000Y-24850000D01*
G75*
G02*
X197225000Y-25100000I-250000J0D01*
G01*
X195775000Y-25100000D01*
G75*
G02*
X195525000Y-24850000I0J250000D01*
G01*
X195525000Y-23650000D01*
G75*
G02*
X195775000Y-23400000I250000J0D01*
G01*
G37*
D21*
X196500000Y-26750000D03*
X196500000Y-29250000D03*
X196500000Y-31750000D03*
D11*
X168200000Y-26924000D03*
D12*
X170740000Y-26924000D03*
X173280000Y-26924000D03*
D11*
X176900000Y-22987000D03*
D12*
X179440000Y-22987000D03*
X181980000Y-22987000D03*
D14*
X46775000Y-25000000D03*
X47719581Y-22719581D03*
X47719581Y-27280419D03*
X50000000Y-21775000D03*
D15*
X50000000Y-25000000D03*
D14*
X50000000Y-28225000D03*
X52280419Y-22719581D03*
X52280419Y-27280419D03*
X53225000Y-25000000D03*
D11*
X85380000Y-32825000D03*
D12*
X87920000Y-32825000D03*
X85380000Y-35365000D03*
X87920000Y-35365000D03*
X85380000Y-37905000D03*
X87920000Y-37905000D03*
D11*
X253619000Y-117348000D03*
D12*
X253619000Y-114808000D03*
X253619000Y-112268000D03*
D11*
X123480000Y-157750000D03*
D12*
X123480000Y-160290000D03*
X120940000Y-157750000D03*
X120940000Y-160290000D03*
X118400000Y-157750000D03*
X118400000Y-160290000D03*
X115860000Y-157750000D03*
X115860000Y-160290000D03*
X113320000Y-157750000D03*
X113320000Y-160290000D03*
D19*
X75545000Y-140695000D03*
D20*
X70465000Y-140695000D03*
G36*
G01*
X157900000Y-89225000D02*
X157900000Y-87775000D01*
G75*
G02*
X158150000Y-87525000I250000J0D01*
G01*
X159350000Y-87525000D01*
G75*
G02*
X159600000Y-87775000I0J-250000D01*
G01*
X159600000Y-89225000D01*
G75*
G02*
X159350000Y-89475000I-250000J0D01*
G01*
X158150000Y-89475000D01*
G75*
G02*
X157900000Y-89225000I0J250000D01*
G01*
G37*
D22*
X161250000Y-88500000D03*
X163750000Y-88500000D03*
X166250000Y-88500000D03*
X168750000Y-88500000D03*
G36*
G01*
X158290100Y-41139800D02*
X158290100Y-39931800D01*
G75*
G02*
X158392100Y-39829800I102000J0D01*
G01*
X159600100Y-39829800D01*
G75*
G02*
X159702100Y-39931800I0J-102000D01*
G01*
X159702100Y-41139800D01*
G75*
G02*
X159600100Y-41241800I-102000J0D01*
G01*
X158392100Y-41241800D01*
G75*
G02*
X158290100Y-41139800I0J102000D01*
G01*
G37*
D23*
X158996100Y-42535800D03*
X158996100Y-44535800D03*
X158996100Y-46535800D03*
X158996100Y-48535800D03*
X158996100Y-50535800D03*
X158996100Y-52535800D03*
X158996100Y-54535800D03*
X158996100Y-56535800D03*
X158996100Y-58535800D03*
X181003400Y-58535800D03*
X181003400Y-56535800D03*
X181003400Y-54535800D03*
X181003400Y-52535800D03*
X181003400Y-50535800D03*
X181003400Y-48535800D03*
X181003400Y-46535800D03*
X181003400Y-44535800D03*
X181003400Y-42535800D03*
X181003400Y-40535800D03*
D14*
X157775000Y-187800000D03*
X158719581Y-185519581D03*
X158719581Y-190080419D03*
X161000000Y-184575000D03*
D15*
X161000000Y-187800000D03*
D14*
X161000000Y-191025000D03*
X163280419Y-185519581D03*
X163280419Y-190080419D03*
X164225000Y-187800000D03*
D24*
X104000000Y-138500000D03*
D25*
X104000000Y-143500000D03*
D26*
X210137500Y-138057500D03*
X202517500Y-138057500D03*
X199977500Y-138057500D03*
X187277500Y-138057500D03*
X184737500Y-138057500D03*
X182197500Y-138057500D03*
X179657500Y-138057500D03*
X177117500Y-138057500D03*
X174577500Y-138057500D03*
X214201500Y-187317500D03*
X174577500Y-187317500D03*
X177117500Y-187317500D03*
X179657500Y-187317500D03*
X182197501Y-187317500D03*
X184737500Y-187317500D03*
X187277500Y-187317500D03*
X189817500Y-187317500D03*
X192357499Y-187317500D03*
X196421499Y-187317500D03*
X198961500Y-187317500D03*
X201501500Y-187317500D03*
X204041500Y-187317500D03*
X206581500Y-187317500D03*
X209121501Y-187317500D03*
X211661500Y-187317500D03*
X197437500Y-138057500D03*
X194897500Y-138057500D03*
X207597500Y-138057500D03*
X205057500Y-138057500D03*
X219281499Y-187317500D03*
X216741500Y-187317500D03*
X192357500Y-138057500D03*
D16*
X170942000Y-110109000D03*
D17*
X170942000Y-115109000D03*
D24*
X47850000Y-161200000D03*
D27*
X52850000Y-161200000D03*
D14*
X83775000Y-115500000D03*
X84719581Y-113219581D03*
X84719581Y-117780419D03*
X87000000Y-112275000D03*
D15*
X87000000Y-115500000D03*
D14*
X87000000Y-118725000D03*
X89280419Y-113219581D03*
X89280419Y-117780419D03*
X90225000Y-115500000D03*
D19*
X95545000Y-140695000D03*
D20*
X90465000Y-140695000D03*
D28*
X249750000Y-32250000D03*
D29*
X247250000Y-32250000D03*
X245250000Y-32250000D03*
X242750000Y-32250000D03*
X249750000Y-29630000D03*
X247250000Y-29630000D03*
X245250000Y-29630000D03*
X242750000Y-29630000D03*
D30*
X252820000Y-32600000D03*
X252820000Y-26920000D03*
X239680000Y-32600000D03*
X239680000Y-26920000D03*
D14*
X83775000Y-25000000D03*
X84719581Y-22719581D03*
X84719581Y-27280419D03*
X87000000Y-21775000D03*
D15*
X87000000Y-25000000D03*
D14*
X87000000Y-28225000D03*
X89280419Y-22719581D03*
X89280419Y-27280419D03*
X90225000Y-25000000D03*
D31*
X123395000Y-85220000D03*
X123395000Y-82680000D03*
X123395000Y-77600000D03*
X123395000Y-75060000D03*
X123395000Y-72520000D03*
X123395000Y-80140000D03*
X123395000Y-49660000D03*
X149795000Y-49660000D03*
X123395000Y-47120000D03*
X149795000Y-47120000D03*
X123395000Y-69980000D03*
X149795000Y-87760000D03*
X149795000Y-85220000D03*
X149795000Y-82680000D03*
X149795000Y-80140000D03*
X123395000Y-87760000D03*
X149795000Y-77600000D03*
X123395000Y-67440000D03*
X123395000Y-44580000D03*
X149795000Y-44580000D03*
X123395000Y-42040000D03*
X149795000Y-42040000D03*
D32*
X142945000Y-45080000D03*
X145485000Y-45080000D03*
X142945000Y-41540000D03*
X145485000Y-41540000D03*
X135325000Y-45080000D03*
X137865000Y-45080000D03*
X135325000Y-41540000D03*
X137865000Y-41540000D03*
D31*
X123395000Y-54740000D03*
X149795000Y-54740000D03*
X123395000Y-52200000D03*
X149795000Y-52200000D03*
D32*
X127705000Y-45080000D03*
X130245000Y-45080000D03*
X127705000Y-41540000D03*
X130245000Y-41540000D03*
D11*
X176900000Y-26924000D03*
D12*
X179440000Y-26924000D03*
X181980000Y-26924000D03*
D14*
X71775000Y-115500000D03*
X72719581Y-113219581D03*
X72719581Y-117780419D03*
X75000000Y-112275000D03*
D15*
X75000000Y-115500000D03*
D14*
X75000000Y-118725000D03*
X77280419Y-113219581D03*
X77280419Y-117780419D03*
X78225000Y-115500000D03*
X108775000Y-25000000D03*
X109719581Y-22719581D03*
X109719581Y-27280419D03*
X112000000Y-21775000D03*
D15*
X112000000Y-25000000D03*
D14*
X112000000Y-28225000D03*
X114280419Y-22719581D03*
X114280419Y-27280419D03*
X115225000Y-25000000D03*
D19*
X104580000Y-31805000D03*
D20*
X99500000Y-31805000D03*
X94420000Y-31805000D03*
D14*
X108775000Y-115500000D03*
X109719581Y-113219581D03*
X109719581Y-117780419D03*
X112000000Y-112275000D03*
D15*
X112000000Y-115500000D03*
D14*
X112000000Y-118725000D03*
X114280419Y-113219581D03*
X114280419Y-117780419D03*
X115225000Y-115500000D03*
X120775000Y-25000000D03*
X121719581Y-22719581D03*
X121719581Y-27280419D03*
X124000000Y-21775000D03*
D15*
X124000000Y-25000000D03*
D14*
X124000000Y-28225000D03*
X126280419Y-22719581D03*
X126280419Y-27280419D03*
X127225000Y-25000000D03*
X145775000Y-139800000D03*
X146719581Y-137519581D03*
X146719581Y-142080419D03*
X149000000Y-136575000D03*
D15*
X149000000Y-139800000D03*
D14*
X149000000Y-143025000D03*
X151280419Y-137519581D03*
X151280419Y-142080419D03*
X152225000Y-139800000D03*
G36*
G01*
X146310000Y-107395000D02*
X144860000Y-107395000D01*
G75*
G02*
X144610000Y-107145000I0J250000D01*
G01*
X144610000Y-105945000D01*
G75*
G02*
X144860000Y-105695000I250000J0D01*
G01*
X146310000Y-105695000D01*
G75*
G02*
X146560000Y-105945000I0J-250000D01*
G01*
X146560000Y-107145000D01*
G75*
G02*
X146310000Y-107395000I-250000J0D01*
G01*
G37*
D21*
X145585000Y-104045000D03*
X145585000Y-101545000D03*
X145585000Y-99045000D03*
X145585000Y-96545000D03*
G36*
G01*
X157900000Y-73225000D02*
X157900000Y-71775000D01*
G75*
G02*
X158150000Y-71525000I250000J0D01*
G01*
X159350000Y-71525000D01*
G75*
G02*
X159600000Y-71775000I0J-250000D01*
G01*
X159600000Y-73225000D01*
G75*
G02*
X159350000Y-73475000I-250000J0D01*
G01*
X158150000Y-73475000D01*
G75*
G02*
X157900000Y-73225000I0J250000D01*
G01*
G37*
D22*
X161250000Y-72500000D03*
X163750000Y-72500000D03*
X166250000Y-72500000D03*
X168750000Y-72500000D03*
D14*
X157775000Y-25000000D03*
X158719581Y-22719581D03*
X158719581Y-27280419D03*
X161000000Y-21775000D03*
D15*
X161000000Y-25000000D03*
D14*
X161000000Y-28225000D03*
X163280419Y-22719581D03*
X163280419Y-27280419D03*
X164225000Y-25000000D03*
G36*
G01*
X72225000Y-107350000D02*
X70775000Y-107350000D01*
G75*
G02*
X70525000Y-107100000I0J250000D01*
G01*
X70525000Y-105900000D01*
G75*
G02*
X70775000Y-105650000I250000J0D01*
G01*
X72225000Y-105650000D01*
G75*
G02*
X72475000Y-105900000I0J-250000D01*
G01*
X72475000Y-107100000D01*
G75*
G02*
X72225000Y-107350000I-250000J0D01*
G01*
G37*
D21*
X71500000Y-104000000D03*
X71500000Y-101500000D03*
X71500000Y-99000000D03*
X71500000Y-96500000D03*
D19*
X127920000Y-187500000D03*
D20*
X133000000Y-187500000D03*
G36*
G01*
X217150000Y-115725000D02*
X217150000Y-114275000D01*
G75*
G02*
X217400000Y-114025000I250000J0D01*
G01*
X218600000Y-114025000D01*
G75*
G02*
X218850000Y-114275000I0J-250000D01*
G01*
X218850000Y-115725000D01*
G75*
G02*
X218600000Y-115975000I-250000J0D01*
G01*
X217400000Y-115975000D01*
G75*
G02*
X217150000Y-115725000I0J250000D01*
G01*
G37*
D22*
X220500000Y-115000000D03*
X223000000Y-115000000D03*
X225500000Y-115000000D03*
X228000000Y-115000000D03*
D24*
X84000000Y-138500000D03*
D25*
X84000000Y-143500000D03*
D19*
X135545000Y-140695000D03*
D20*
X130465000Y-140695000D03*
D24*
X84980000Y-105850000D03*
D27*
X89980000Y-105850000D03*
D24*
X191135000Y-115443000D03*
D27*
X191135000Y-110443000D03*
D13*
X174550000Y-135350000D03*
X172150000Y-135350000D03*
X169750000Y-135350000D03*
X167350000Y-135350000D03*
X164950000Y-135350000D03*
D14*
X241050000Y-187730419D03*
X241994581Y-185450000D03*
X241994581Y-190010838D03*
X244275000Y-184505419D03*
D15*
X244275000Y-187730419D03*
D14*
X244275000Y-190955419D03*
X246555419Y-185450000D03*
X246555419Y-190010838D03*
X247500000Y-187730419D03*
D24*
X47900000Y-105750000D03*
D27*
X52900000Y-105750000D03*
D19*
X50400000Y-168021000D03*
D20*
X50400000Y-173101000D03*
X50400000Y-178181000D03*
G36*
G01*
X198400000Y-115725000D02*
X198400000Y-114275000D01*
G75*
G02*
X198650000Y-114025000I250000J0D01*
G01*
X199850000Y-114025000D01*
G75*
G02*
X200100000Y-114275000I0J-250000D01*
G01*
X200100000Y-115725000D01*
G75*
G02*
X199850000Y-115975000I-250000J0D01*
G01*
X198650000Y-115975000D01*
G75*
G02*
X198400000Y-115725000I0J250000D01*
G01*
G37*
D22*
X201750000Y-115000000D03*
X204250000Y-115000000D03*
X206750000Y-115000000D03*
X209250000Y-115000000D03*
D33*
X222535000Y-27305000D03*
X233965000Y-27305000D03*
G36*
G01*
X233169000Y-36894000D02*
X233169000Y-35496000D01*
G75*
G02*
X233271000Y-35394000I102000J0D01*
G01*
X234669000Y-35394000D01*
G75*
G02*
X234771000Y-35496000I0J-102000D01*
G01*
X234771000Y-36894000D01*
G75*
G02*
X234669000Y-36996000I-102000J0D01*
G01*
X233271000Y-36996000D01*
G75*
G02*
X233169000Y-36894000I0J102000D01*
G01*
G37*
D34*
X232690000Y-33655000D03*
X231430000Y-36195000D03*
X230150000Y-33655000D03*
X228890000Y-36195000D03*
X227610000Y-33655000D03*
X226350000Y-36195000D03*
X225070000Y-33655000D03*
X223810000Y-36195000D03*
X222530000Y-33655000D03*
D35*
X234875000Y-22405000D03*
X232335000Y-22405000D03*
X224165000Y-22405000D03*
X221625000Y-22405000D03*
D36*
X235995000Y-30355000D03*
X220505000Y-30355000D03*
D14*
X256775000Y-25000000D03*
X257719581Y-22719581D03*
X257719581Y-27280419D03*
X260000000Y-21775000D03*
D15*
X260000000Y-25000000D03*
D14*
X260000000Y-28225000D03*
X262280419Y-22719581D03*
X262280419Y-27280419D03*
X263225000Y-25000000D03*
G36*
G01*
X236150000Y-115725000D02*
X236150000Y-114275000D01*
G75*
G02*
X236400000Y-114025000I250000J0D01*
G01*
X237600000Y-114025000D01*
G75*
G02*
X237850000Y-114275000I0J-250000D01*
G01*
X237850000Y-115725000D01*
G75*
G02*
X237600000Y-115975000I-250000J0D01*
G01*
X236400000Y-115975000D01*
G75*
G02*
X236150000Y-115725000I0J250000D01*
G01*
G37*
D22*
X239500000Y-115000000D03*
X242000000Y-115000000D03*
X244500000Y-115000000D03*
X247000000Y-115000000D03*
D16*
X96462323Y-113850000D03*
D17*
X101462323Y-113850000D03*
D14*
X145775000Y-115500000D03*
X146719581Y-113219581D03*
X146719581Y-117780419D03*
X149000000Y-112275000D03*
D15*
X149000000Y-115500000D03*
D14*
X149000000Y-118725000D03*
X151280419Y-113219581D03*
X151280419Y-117780419D03*
X152225000Y-115500000D03*
D11*
X262800000Y-47425000D03*
D12*
X262800000Y-49965000D03*
X262800000Y-52505000D03*
X262800000Y-55045000D03*
X262800000Y-57585000D03*
D11*
X122385000Y-32770000D03*
D12*
X124925000Y-32770000D03*
X122385000Y-35310000D03*
X124925000Y-35310000D03*
X122385000Y-37850000D03*
X124925000Y-37850000D03*
D14*
X241025000Y-139800000D03*
X241969581Y-137519581D03*
X241969581Y-142080419D03*
X244250000Y-136575000D03*
D15*
X244250000Y-139800000D03*
D14*
X244250000Y-143025000D03*
X246530419Y-137519581D03*
X246530419Y-142080419D03*
X247475000Y-139800000D03*
D16*
X59382323Y-102750000D03*
D17*
X64382323Y-102750000D03*
D24*
X64000000Y-138500000D03*
D25*
X64000000Y-143500000D03*
D19*
X179451000Y-113030000D03*
D20*
X184531000Y-113030000D03*
D11*
X68224400Y-187502800D03*
D12*
X68224400Y-184962800D03*
X70764400Y-187502800D03*
X70764400Y-184962800D03*
X73304400Y-187502800D03*
X73304400Y-184962800D03*
X75844400Y-187502800D03*
X75844400Y-184962800D03*
G36*
G01*
X157900000Y-81225000D02*
X157900000Y-79775000D01*
G75*
G02*
X158150000Y-79525000I250000J0D01*
G01*
X159350000Y-79525000D01*
G75*
G02*
X159600000Y-79775000I0J-250000D01*
G01*
X159600000Y-81225000D01*
G75*
G02*
X159350000Y-81475000I-250000J0D01*
G01*
X158150000Y-81475000D01*
G75*
G02*
X157900000Y-81225000I0J250000D01*
G01*
G37*
D22*
X161250000Y-80500000D03*
X163750000Y-80500000D03*
X166250000Y-80500000D03*
D14*
X46775000Y-139800000D03*
X47719581Y-137519581D03*
X47719581Y-142080419D03*
X50000000Y-136575000D03*
D15*
X50000000Y-139800000D03*
D14*
X50000000Y-143025000D03*
X52280419Y-137519581D03*
X52280419Y-142080419D03*
X53225000Y-139800000D03*
D24*
X139465000Y-189695000D03*
D27*
X139465000Y-184695000D03*
D31*
X86390000Y-85275000D03*
X86390000Y-82735000D03*
X86390000Y-77655000D03*
X86390000Y-75115000D03*
X86390000Y-72575000D03*
X86390000Y-80195000D03*
X86390000Y-49715000D03*
X112790000Y-49715000D03*
X86390000Y-47175000D03*
X112790000Y-47175000D03*
X86390000Y-70035000D03*
X112790000Y-87815000D03*
X112790000Y-85275000D03*
X112790000Y-82735000D03*
X112790000Y-80195000D03*
X86390000Y-87815000D03*
X112790000Y-77655000D03*
X86390000Y-67495000D03*
X86390000Y-44635000D03*
X112790000Y-44635000D03*
X86390000Y-42095000D03*
X112790000Y-42095000D03*
D32*
X105940000Y-45135000D03*
X108480000Y-45135000D03*
X105940000Y-41595000D03*
X108480000Y-41595000D03*
X98320000Y-45135000D03*
X100860000Y-45135000D03*
X98320000Y-41595000D03*
X100860000Y-41595000D03*
D31*
X86390000Y-54795000D03*
X112790000Y-54795000D03*
X86390000Y-52255000D03*
X112790000Y-52255000D03*
D32*
X90700000Y-45135000D03*
X93240000Y-45135000D03*
X90700000Y-41595000D03*
X93240000Y-41595000D03*
D16*
X87000000Y-176882323D03*
D17*
X87000000Y-181882323D03*
G36*
G01*
X149025000Y-164450000D02*
X147575000Y-164450000D01*
G75*
G02*
X147325000Y-164200000I0J250000D01*
G01*
X147325000Y-163000000D01*
G75*
G02*
X147575000Y-162750000I250000J0D01*
G01*
X149025000Y-162750000D01*
G75*
G02*
X149275000Y-163000000I0J-250000D01*
G01*
X149275000Y-164200000D01*
G75*
G02*
X149025000Y-164450000I-250000J0D01*
G01*
G37*
D21*
X148300000Y-161100000D03*
X148300000Y-158600000D03*
X148300000Y-156100000D03*
X148300000Y-153600000D03*
D16*
X59382323Y-113750000D03*
D17*
X64382323Y-113750000D03*
D33*
X203035000Y-27305000D03*
X214465000Y-27305000D03*
G36*
G01*
X213669000Y-36894000D02*
X213669000Y-35496000D01*
G75*
G02*
X213771000Y-35394000I102000J0D01*
G01*
X215169000Y-35394000D01*
G75*
G02*
X215271000Y-35496000I0J-102000D01*
G01*
X215271000Y-36894000D01*
G75*
G02*
X215169000Y-36996000I-102000J0D01*
G01*
X213771000Y-36996000D01*
G75*
G02*
X213669000Y-36894000I0J102000D01*
G01*
G37*
D34*
X213190000Y-33655000D03*
X211930000Y-36195000D03*
X210650000Y-33655000D03*
X209390000Y-36195000D03*
X208110000Y-33655000D03*
X206850000Y-36195000D03*
X205570000Y-33655000D03*
X204310000Y-36195000D03*
X203030000Y-33655000D03*
D35*
X215375000Y-22405000D03*
X212835000Y-22405000D03*
X204665000Y-22405000D03*
X202125000Y-22405000D03*
D36*
X216495000Y-30355000D03*
X201005000Y-30355000D03*
D11*
X185160000Y-34820000D03*
D12*
X187700000Y-34820000D03*
X185160000Y-37360000D03*
X187700000Y-37360000D03*
X185160000Y-39900000D03*
X187700000Y-39900000D03*
X185160000Y-42440000D03*
X187700000Y-42440000D03*
X185160000Y-44980000D03*
X187700000Y-44980000D03*
X185160000Y-47520000D03*
X187700000Y-47520000D03*
X185160000Y-50060000D03*
X187700000Y-50060000D03*
X185160000Y-52600000D03*
X187700000Y-52600000D03*
D19*
X86775000Y-94055000D03*
D20*
X86775000Y-99135000D03*
G36*
G01*
X161375000Y-148650000D02*
X162825000Y-148650000D01*
G75*
G02*
X163075000Y-148900000I0J-250000D01*
G01*
X163075000Y-150100000D01*
G75*
G02*
X162825000Y-150350000I-250000J0D01*
G01*
X161375000Y-150350000D01*
G75*
G02*
X161125000Y-150100000I0J250000D01*
G01*
X161125000Y-148900000D01*
G75*
G02*
X161375000Y-148650000I250000J0D01*
G01*
G37*
D21*
X162100000Y-152000000D03*
X162100000Y-154500000D03*
X162100000Y-157000000D03*
X162100000Y-159500000D03*
G36*
G01*
X109305000Y-107450000D02*
X107855000Y-107450000D01*
G75*
G02*
X107605000Y-107200000I0J250000D01*
G01*
X107605000Y-106000000D01*
G75*
G02*
X107855000Y-105750000I250000J0D01*
G01*
X109305000Y-105750000D01*
G75*
G02*
X109555000Y-106000000I0J-250000D01*
G01*
X109555000Y-107200000D01*
G75*
G02*
X109305000Y-107450000I-250000J0D01*
G01*
G37*
X108580000Y-104100000D03*
X108580000Y-101600000D03*
X108580000Y-99100000D03*
X108580000Y-96600000D03*
D24*
X121985000Y-105795000D03*
D27*
X126985000Y-105795000D03*
D19*
X49695000Y-93955000D03*
D20*
X49695000Y-99035000D03*
D31*
X49310000Y-85175000D03*
X49310000Y-82635000D03*
X49310000Y-77555000D03*
X49310000Y-75015000D03*
X49310000Y-72475000D03*
X49310000Y-80095000D03*
X49310000Y-49615000D03*
X75710000Y-49615000D03*
X49310000Y-47075000D03*
X75710000Y-47075000D03*
X49310000Y-69935000D03*
X75710000Y-87715000D03*
X75710000Y-85175000D03*
X75710000Y-82635000D03*
X75710000Y-80095000D03*
X49310000Y-87715000D03*
X75710000Y-77555000D03*
X49310000Y-67395000D03*
X49310000Y-44535000D03*
X75710000Y-44535000D03*
X49310000Y-41995000D03*
X75710000Y-41995000D03*
D32*
X68860000Y-45035000D03*
X71400000Y-45035000D03*
X68860000Y-41495000D03*
X71400000Y-41495000D03*
X61240000Y-45035000D03*
X63780000Y-45035000D03*
X61240000Y-41495000D03*
X63780000Y-41495000D03*
D31*
X49310000Y-54695000D03*
X75710000Y-54695000D03*
X49310000Y-52155000D03*
X75710000Y-52155000D03*
D32*
X53620000Y-45035000D03*
X56160000Y-45035000D03*
X53620000Y-41495000D03*
X56160000Y-41495000D03*
D11*
X109600000Y-157200000D03*
D12*
X107060000Y-157200000D03*
D19*
X115545000Y-140695000D03*
D20*
X110465000Y-140695000D03*
D37*
X62000000Y-173975000D03*
X62000000Y-168975000D03*
X62000000Y-158975000D03*
X62000000Y-153975000D03*
D11*
X180200000Y-92075000D03*
D12*
X180200000Y-89535000D03*
D14*
X145775000Y-25000000D03*
X146719581Y-22719581D03*
X146719581Y-27280419D03*
X149000000Y-21775000D03*
D15*
X149000000Y-25000000D03*
D14*
X149000000Y-28225000D03*
X151280419Y-22719581D03*
X151280419Y-27280419D03*
X152225000Y-25000000D03*
X256775000Y-115500000D03*
X257719581Y-113219581D03*
X257719581Y-117780419D03*
X260000000Y-112275000D03*
D15*
X260000000Y-115500000D03*
D14*
X260000000Y-118725000D03*
X262280419Y-113219581D03*
X262280419Y-117780419D03*
X263225000Y-115500000D03*
D13*
X134850000Y-135200000D03*
X137250000Y-135200000D03*
X139650000Y-135200000D03*
X142050000Y-135200000D03*
X144450000Y-135200000D03*
D14*
X71775000Y-25000000D03*
X72719581Y-22719581D03*
X72719581Y-27280419D03*
X75000000Y-21775000D03*
D15*
X75000000Y-25000000D03*
D14*
X75000000Y-28225000D03*
X77280419Y-22719581D03*
X77280419Y-27280419D03*
X78225000Y-25000000D03*
D16*
X106000000Y-184132323D03*
D17*
X106000000Y-189132323D03*
D38*
X159500000Y-33500000D03*
X159500000Y-64500000D03*
X179250000Y-64500000D03*
X179499999Y-33500000D03*
D11*
X175600000Y-63480000D03*
D12*
X173060000Y-63480000D03*
X170520000Y-63480000D03*
X167980000Y-63480000D03*
X165440000Y-63480000D03*
X162900000Y-63480000D03*
X175599999Y-66020000D03*
X173060000Y-66020000D03*
X170520000Y-66020000D03*
X167980000Y-66020000D03*
X165440000Y-66020001D03*
X162900000Y-66020000D03*
D16*
X74250000Y-171000000D03*
D17*
X69250000Y-171000000D03*
D39*
X203420000Y-41047000D03*
D40*
X203420000Y-107847000D03*
D41*
X260220000Y-63647000D03*
X260220000Y-96647000D03*
D16*
X133467323Y-113795000D03*
D17*
X138467323Y-113795000D03*
D14*
X46775000Y-187800000D03*
X47719581Y-185519581D03*
X47719581Y-190080419D03*
X50000000Y-184575000D03*
D15*
X50000000Y-187800000D03*
D14*
X50000000Y-191025000D03*
X52280419Y-185519581D03*
X52280419Y-190080419D03*
X53225000Y-187800000D03*
G36*
G01*
X48625000Y-153000000D02*
X47125000Y-153000000D01*
G75*
G02*
X46875000Y-152750000I0J250000D01*
G01*
X46875000Y-151550000D01*
G75*
G02*
X47125000Y-151300000I250000J0D01*
G01*
X48625000Y-151300000D01*
G75*
G02*
X48875000Y-151550000I0J-250000D01*
G01*
X48875000Y-152750000D01*
G75*
G02*
X48625000Y-153000000I-250000J0D01*
G01*
G37*
D42*
X47875000Y-149650000D03*
D20*
X255300000Y-37400000D03*
D37*
X147975000Y-176100000D03*
X142975000Y-176100000D03*
X132975000Y-176100000D03*
X127975000Y-176100000D03*
D11*
X48300000Y-32725000D03*
D12*
X50840000Y-32725000D03*
X48300000Y-35265000D03*
X50840000Y-35265000D03*
X48300000Y-37805000D03*
X50840000Y-37805000D03*
D19*
X141585000Y-31750000D03*
D20*
X136505000Y-31750000D03*
X131425000Y-31750000D03*
D14*
X120775000Y-115500000D03*
X121719581Y-113219581D03*
X121719581Y-117780419D03*
X124000000Y-112275000D03*
D15*
X124000000Y-115500000D03*
D14*
X124000000Y-118725000D03*
X126280419Y-113219581D03*
X126280419Y-117780419D03*
X127225000Y-115500000D03*
D19*
X67500000Y-31750000D03*
D20*
X62420000Y-31750000D03*
X57340000Y-31750000D03*
D14*
X46775000Y-115500000D03*
X47719581Y-113219581D03*
X47719581Y-117780419D03*
X50000000Y-112275000D03*
D15*
X50000000Y-115500000D03*
D14*
X50000000Y-118725000D03*
X52280419Y-113219581D03*
X52280419Y-117780419D03*
X53225000Y-115500000D03*
D24*
X124000000Y-138500000D03*
D25*
X124000000Y-143500000D03*
D14*
X157775000Y-139800000D03*
X158719581Y-137519581D03*
X158719581Y-142080419D03*
X161000000Y-136575000D03*
D15*
X161000000Y-139800000D03*
D14*
X161000000Y-143025000D03*
X163280419Y-137519581D03*
X163280419Y-142080419D03*
X164225000Y-139800000D03*
D13*
X219650000Y-120000000D03*
X222050000Y-120000000D03*
X224450000Y-120000000D03*
X226850000Y-120000000D03*
X229250000Y-120000000D03*
M02*
