M48
; DRILL file {KiCad 8.0.8+1} date 2025-06-19T10:37:59+0000
; FORMAT={-:-/ absolute / metric / decimal}
; #@! TF.CreationDate,2025-06-19T10:37:59+00:00
; #@! TF.GenerationSoftware,Kicad,Pcbnew,8.0.8+1
; #@! TF.FileFunction,NonPlated,1,4,NPTH
FMAT,2
METRIC
; #@! TA.AperFunction,NonPlated,NPTH,ComponentDrill
T1C0.600
; #@! TA.AperFunction,NonPlated,NPTH,ComponentDrill
T2C1.100
; #@! TA.AperFunction,NonPlated,NPTH,ComponentDrill
T3C1.600
; #@! TA.AperFunction,NonPlated,NPTH,ComponentDrill
T4C3.000
; #@! TA.AperFunction,NonPlated,NPTH,ComponentDrill
T5C3.250
; #@! TA.AperFunction,NonPlated,NPTH,ComponentDrill
T6C3.500
%
G90
G05
T1
X134.85Y-135.2
X137.25Y-135.2
X139.65Y-135.2
X142.05Y-135.2
X144.45Y-135.2
X164.95Y-135.35
X167.35Y-135.35
X169.75Y-135.35
X172.15Y-135.35
X174.55Y-135.35
X219.65Y-120.0
X222.05Y-120.0
X224.45Y-120.0
X226.85Y-120.0
X229.25Y-120.0
X238.9Y-120.0
X241.3Y-120.0
X243.7Y-120.0
X246.1Y-120.0
X248.5Y-120.0
T2
X203.42Y-107.847
T3
X203.42Y-41.047
T5
X203.035Y-27.305
X214.465Y-27.305
X222.535Y-27.305
X233.965Y-27.305
T6
X159.5Y-33.5
X159.5Y-64.5
X179.25Y-64.5
X179.5Y-33.5
T4
X261.22Y-63.647G85X259.22Y-63.647
G05
X261.22Y-96.647G85X259.22Y-96.647
G05
M30
