G04 #@! TF.GenerationSoftware,KiCad,Pcbnew,8.0.4+1*
G04 #@! TF.CreationDate,2024-10-19T14:18:40+00:00*
G04 #@! TF.ProjectId,hw-openmower-universal,68772d6f-7065-46e6-9d6f-7765722d756e,rev?*
G04 #@! TF.SameCoordinates,Original*
G04 #@! TF.FileFunction,Soldermask,Bot*
G04 #@! TF.FilePolarity,Negative*
%FSLAX46Y46*%
G04 Gerber Fmt 4.6, Leading zero omitted, Abs format (unit mm)*
G04 Created by KiCad (PCBNEW 8.0.4+1) date 2024-10-19 14:18:40*
%MOMM*%
%LPD*%
G01*
G04 APERTURE LIST*
%ADD10C,0.100000*%
%ADD11R,1.700000X1.700000*%
%ADD12O,1.700000X1.700000*%
%ADD13R,1.100000X1.100000*%
%ADD14C,1.100000*%
%ADD15C,2.025000*%
%ADD16C,0.600000*%
%ADD17C,0.900000*%
%ADD18C,8.600000*%
%ADD19R,2.000000X2.000000*%
%ADD20C,2.000000*%
%ADD21O,1.700000X2.000000*%
%ADD22R,2.600000X2.600000*%
%ADD23C,2.600000*%
%ADD24O,1.950000X1.700000*%
%ADD25C,1.412000*%
%ADD26R,3.800000X3.800000*%
%ADD27C,4.000000*%
%ADD28O,1.727200X2.500000*%
%ADD29C,3.800000*%
%ADD30R,1.500000X1.500000*%
%ADD31C,1.500000*%
%ADD32C,3.000000*%
%ADD33O,3.000000X1.700000*%
%ADD34O,1.700000X3.000000*%
%ADD35C,3.250000*%
%ADD36C,1.602000*%
%ADD37C,1.734000*%
%ADD38C,2.649000*%
%ADD39O,1.700000X1.950000*%
%ADD40C,2.350000*%
%ADD41C,3.500000*%
%ADD42C,1.600000*%
%ADD43O,8.400000X6.400000*%
%ADD44O,2.000000X1.700000*%
G04 APERTURE END LIST*
D10*
X60500000Y-19250000D02*
X64500000Y-19250000D01*
X64500000Y-24500000D01*
X60500000Y-24500000D01*
X60500000Y-19250000D01*
G36*
X60500000Y-19250000D02*
G01*
X64500000Y-19250000D01*
X64500000Y-24500000D01*
X60500000Y-24500000D01*
X60500000Y-19250000D01*
G37*
X92750000Y-19250000D02*
X97000000Y-19250000D01*
X97000000Y-24500000D01*
X92750000Y-24500000D01*
X92750000Y-19250000D01*
G36*
X92750000Y-19250000D02*
G01*
X97000000Y-19250000D01*
X97000000Y-24500000D01*
X92750000Y-24500000D01*
X92750000Y-19250000D01*
G37*
X134500000Y-19250000D02*
X138500000Y-19250000D01*
X138500000Y-24500000D01*
X134500000Y-24500000D01*
X134500000Y-19250000D01*
G36*
X134500000Y-19250000D02*
G01*
X138500000Y-19250000D01*
X138500000Y-24500000D01*
X134500000Y-24500000D01*
X134500000Y-19250000D01*
G37*
X65000000Y-19250000D02*
X69250000Y-19250000D01*
X69250000Y-24500000D01*
X65000000Y-24500000D01*
X65000000Y-19250000D01*
G36*
X65000000Y-19250000D02*
G01*
X69250000Y-19250000D01*
X69250000Y-24500000D01*
X65000000Y-24500000D01*
X65000000Y-19250000D01*
G37*
X102000000Y-19250000D02*
X106250000Y-19250000D01*
X106250000Y-24500000D01*
X102000000Y-24500000D01*
X102000000Y-19250000D01*
G36*
X102000000Y-19250000D02*
G01*
X106250000Y-19250000D01*
X106250000Y-24500000D01*
X102000000Y-24500000D01*
X102000000Y-19250000D01*
G37*
X129750000Y-19250000D02*
X134000000Y-19250000D01*
X134000000Y-24500000D01*
X129750000Y-24500000D01*
X129750000Y-19250000D01*
G36*
X129750000Y-19250000D02*
G01*
X134000000Y-19250000D01*
X134000000Y-24500000D01*
X129750000Y-24500000D01*
X129750000Y-19250000D01*
G37*
X55750000Y-19250000D02*
X60000000Y-19250000D01*
X60000000Y-24500000D01*
X55750000Y-24500000D01*
X55750000Y-19250000D01*
G36*
X55750000Y-19250000D02*
G01*
X60000000Y-19250000D01*
X60000000Y-24500000D01*
X55750000Y-24500000D01*
X55750000Y-19250000D01*
G37*
X97500000Y-19250000D02*
X101500000Y-19250000D01*
X101500000Y-24500000D01*
X97500000Y-24500000D01*
X97500000Y-19250000D01*
G36*
X97500000Y-19250000D02*
G01*
X101500000Y-19250000D01*
X101500000Y-24500000D01*
X97500000Y-24500000D01*
X97500000Y-19250000D01*
G37*
X139000000Y-19250000D02*
X143250000Y-19250000D01*
X143250000Y-24500000D01*
X139000000Y-24500000D01*
X139000000Y-19250000D01*
G36*
X139000000Y-19250000D02*
G01*
X143250000Y-19250000D01*
X143250000Y-24500000D01*
X139000000Y-24500000D01*
X139000000Y-19250000D01*
G37*
D11*
X168200000Y-22987000D03*
D12*
X170740000Y-22987000D03*
X173280000Y-22987000D03*
D13*
X144585000Y-103815000D03*
D14*
X145585000Y-102545000D03*
X145585000Y-101275000D03*
X144585000Y-100005000D03*
X145585000Y-98735000D03*
X145585000Y-97465000D03*
X144585000Y-96195000D03*
D15*
X145085000Y-106485000D03*
X145085000Y-93525000D03*
D16*
X238900000Y-120000000D03*
X241300000Y-120000000D03*
X243700000Y-120000000D03*
X246100000Y-120000000D03*
X248500000Y-120000000D03*
D17*
X145775000Y-187800000D03*
X146719581Y-185519581D03*
X146719581Y-190080419D03*
X149000000Y-184575000D03*
D18*
X149000000Y-187800000D03*
D17*
X149000000Y-191025000D03*
X151280419Y-185519581D03*
X151280419Y-190080419D03*
X152225000Y-187800000D03*
D19*
X96462323Y-102850000D03*
D20*
X101462323Y-102850000D03*
D19*
X133467323Y-102795000D03*
D20*
X138467323Y-102795000D03*
G36*
G01*
X190080000Y-24396000D02*
X190080000Y-25896000D01*
G75*
G02*
X189830000Y-26146000I-250000J0D01*
G01*
X188630000Y-26146000D01*
G75*
G02*
X188380000Y-25896000I0J250000D01*
G01*
X188380000Y-24396000D01*
G75*
G02*
X188630000Y-24146000I250000J0D01*
G01*
X189830000Y-24146000D01*
G75*
G02*
X190080000Y-24396000I0J-250000D01*
G01*
G37*
D21*
X186730000Y-25146000D03*
D22*
X123780000Y-94000000D03*
D23*
X123780000Y-99080000D03*
D17*
X157775000Y-115500000D03*
X158719581Y-113219581D03*
X158719581Y-117780419D03*
X161000000Y-112275000D03*
D18*
X161000000Y-115500000D03*
D17*
X161000000Y-118725000D03*
X163280419Y-113219581D03*
X163280419Y-117780419D03*
X164225000Y-115500000D03*
G36*
G01*
X195775000Y-23400000D02*
X197225000Y-23400000D01*
G75*
G02*
X197475000Y-23650000I0J-250000D01*
G01*
X197475000Y-24850000D01*
G75*
G02*
X197225000Y-25100000I-250000J0D01*
G01*
X195775000Y-25100000D01*
G75*
G02*
X195525000Y-24850000I0J250000D01*
G01*
X195525000Y-23650000D01*
G75*
G02*
X195775000Y-23400000I250000J0D01*
G01*
G37*
D24*
X196500000Y-26750000D03*
X196500000Y-29250000D03*
X196500000Y-31750000D03*
D11*
X168200000Y-26924000D03*
D12*
X170740000Y-26924000D03*
X173280000Y-26924000D03*
D11*
X176900000Y-22987000D03*
D12*
X179440000Y-22987000D03*
X181980000Y-22987000D03*
D17*
X46775000Y-25000000D03*
X47719581Y-22719581D03*
X47719581Y-27280419D03*
X50000000Y-21775000D03*
D18*
X50000000Y-25000000D03*
D17*
X50000000Y-28225000D03*
X52280419Y-22719581D03*
X52280419Y-27280419D03*
X53225000Y-25000000D03*
D11*
X85380000Y-32825000D03*
D12*
X87920000Y-32825000D03*
X85380000Y-35365000D03*
X87920000Y-35365000D03*
X85380000Y-37905000D03*
X87920000Y-37905000D03*
D11*
X253619000Y-117348000D03*
D12*
X253619000Y-114808000D03*
X253619000Y-112268000D03*
D11*
X123480000Y-157750000D03*
D12*
X123480000Y-160290000D03*
X120940000Y-157750000D03*
X120940000Y-160290000D03*
X118400000Y-157750000D03*
X118400000Y-160290000D03*
X115860000Y-157750000D03*
X115860000Y-160290000D03*
X113320000Y-157750000D03*
X113320000Y-160290000D03*
D22*
X75545000Y-140695000D03*
D23*
X70465000Y-140695000D03*
G36*
G01*
X158290100Y-41139800D02*
X158290100Y-39931800D01*
G75*
G02*
X158392100Y-39829800I102000J0D01*
G01*
X159600100Y-39829800D01*
G75*
G02*
X159702100Y-39931800I0J-102000D01*
G01*
X159702100Y-41139800D01*
G75*
G02*
X159600100Y-41241800I-102000J0D01*
G01*
X158392100Y-41241800D01*
G75*
G02*
X158290100Y-41139800I0J102000D01*
G01*
G37*
D25*
X158996100Y-42535800D03*
X158996100Y-44535800D03*
X158996100Y-46535800D03*
X158996100Y-48535800D03*
X158996100Y-50535800D03*
X158996100Y-52535800D03*
X158996100Y-54535800D03*
X158996100Y-56535800D03*
X158996100Y-58535800D03*
X181003400Y-58535800D03*
X181003400Y-56535800D03*
X181003400Y-54535800D03*
X181003400Y-52535800D03*
X181003400Y-50535800D03*
X181003400Y-48535800D03*
X181003400Y-46535800D03*
X181003400Y-44535800D03*
X181003400Y-42535800D03*
X181003400Y-40535800D03*
D17*
X157775000Y-187800000D03*
X158719581Y-185519581D03*
X158719581Y-190080419D03*
X161000000Y-184575000D03*
D18*
X161000000Y-187800000D03*
D17*
X161000000Y-191025000D03*
X163280419Y-185519581D03*
X163280419Y-190080419D03*
X164225000Y-187800000D03*
D26*
X104000000Y-138500000D03*
D27*
X104000000Y-143500000D03*
D28*
X210137500Y-138057500D03*
X202517500Y-138057500D03*
X199977500Y-138057500D03*
X187277500Y-138057500D03*
X184737500Y-138057500D03*
X182197500Y-138057500D03*
X179657500Y-138057500D03*
X177117500Y-138057500D03*
X174577500Y-138057500D03*
X214201500Y-187317500D03*
X174577500Y-187317500D03*
X177117500Y-187317500D03*
X179657500Y-187317500D03*
X182197501Y-187317500D03*
X184737500Y-187317500D03*
X187277500Y-187317500D03*
X189817500Y-187317500D03*
X192357499Y-187317500D03*
X196421499Y-187317500D03*
X198961500Y-187317500D03*
X201501500Y-187317500D03*
X204041500Y-187317500D03*
X206581500Y-187317500D03*
X209121501Y-187317500D03*
X211661500Y-187317500D03*
X197437500Y-138057500D03*
X194897500Y-138057500D03*
X207597500Y-138057500D03*
X205057500Y-138057500D03*
X219281499Y-187317500D03*
X216741500Y-187317500D03*
X192357500Y-138057500D03*
D13*
X147900000Y-162850000D03*
D14*
X148900000Y-161580000D03*
X148900000Y-160310000D03*
X147900000Y-159040000D03*
X148900000Y-157770000D03*
X148900000Y-156500000D03*
X147900000Y-155230000D03*
D15*
X148400000Y-165520000D03*
X148400000Y-152560000D03*
D19*
X170942000Y-110109000D03*
D20*
X170942000Y-115109000D03*
D26*
X47850000Y-161200000D03*
D29*
X52850000Y-161200000D03*
D17*
X83775000Y-115500000D03*
X84719581Y-113219581D03*
X84719581Y-117780419D03*
X87000000Y-112275000D03*
D18*
X87000000Y-115500000D03*
D17*
X87000000Y-118725000D03*
X89280419Y-113219581D03*
X89280419Y-117780419D03*
X90225000Y-115500000D03*
D13*
X70500000Y-103770000D03*
D14*
X71500000Y-102500000D03*
X71500000Y-101230000D03*
X70500000Y-99960000D03*
X71500000Y-98690000D03*
X71500000Y-97420000D03*
X70500000Y-96150000D03*
D15*
X71000000Y-106440000D03*
X71000000Y-93480000D03*
D22*
X95545000Y-140695000D03*
D23*
X90465000Y-140695000D03*
D30*
X249750000Y-32250000D03*
D31*
X247250000Y-32250000D03*
X245250000Y-32250000D03*
X242750000Y-32250000D03*
X249750000Y-29630000D03*
X247250000Y-29630000D03*
X245250000Y-29630000D03*
X242750000Y-29630000D03*
D32*
X252820000Y-32600000D03*
X252820000Y-26920000D03*
X239680000Y-32600000D03*
X239680000Y-26920000D03*
D17*
X83775000Y-25000000D03*
X84719581Y-22719581D03*
X84719581Y-27280419D03*
X87000000Y-21775000D03*
D18*
X87000000Y-25000000D03*
D17*
X87000000Y-28225000D03*
X89280419Y-22719581D03*
X89280419Y-27280419D03*
X90225000Y-25000000D03*
D33*
X123395000Y-85220000D03*
X123395000Y-82680000D03*
X123395000Y-77600000D03*
X123395000Y-75060000D03*
X123395000Y-72520000D03*
X123395000Y-80140000D03*
X123395000Y-49660000D03*
X149795000Y-49660000D03*
X123395000Y-47120000D03*
X149795000Y-47120000D03*
X123395000Y-69980000D03*
X149795000Y-87760000D03*
X149795000Y-85220000D03*
X149795000Y-82680000D03*
X149795000Y-80140000D03*
X123395000Y-87760000D03*
X149795000Y-77600000D03*
X123395000Y-67440000D03*
X123395000Y-44580000D03*
X149795000Y-44580000D03*
X123395000Y-42040000D03*
X149795000Y-42040000D03*
D34*
X142945000Y-45080000D03*
X145485000Y-45080000D03*
X142945000Y-41540000D03*
X145485000Y-41540000D03*
X135325000Y-45080000D03*
X137865000Y-45080000D03*
X135325000Y-41540000D03*
X137865000Y-41540000D03*
D33*
X123395000Y-54740000D03*
X149795000Y-54740000D03*
X123395000Y-52200000D03*
X149795000Y-52200000D03*
D34*
X127705000Y-45080000D03*
X130245000Y-45080000D03*
X127705000Y-41540000D03*
X130245000Y-41540000D03*
D11*
X176900000Y-26924000D03*
D12*
X179440000Y-26924000D03*
X181980000Y-26924000D03*
D17*
X71775000Y-115500000D03*
X72719581Y-113219581D03*
X72719581Y-117780419D03*
X75000000Y-112275000D03*
D18*
X75000000Y-115500000D03*
D17*
X75000000Y-118725000D03*
X77280419Y-113219581D03*
X77280419Y-117780419D03*
X78225000Y-115500000D03*
D11*
X142200000Y-151170000D03*
D12*
X142200000Y-153710000D03*
X142200000Y-156250000D03*
X142200000Y-158790000D03*
X142200000Y-161330000D03*
D17*
X108775000Y-25000000D03*
X109719581Y-22719581D03*
X109719581Y-27280419D03*
X112000000Y-21775000D03*
D18*
X112000000Y-25000000D03*
D17*
X112000000Y-28225000D03*
X114280419Y-22719581D03*
X114280419Y-27280419D03*
X115225000Y-25000000D03*
D22*
X104580000Y-31805000D03*
D23*
X99500000Y-31805000D03*
X94420000Y-31805000D03*
D17*
X108775000Y-115500000D03*
X109719581Y-113219581D03*
X109719581Y-117780419D03*
X112000000Y-112275000D03*
D18*
X112000000Y-115500000D03*
D17*
X112000000Y-118725000D03*
X114280419Y-113219581D03*
X114280419Y-117780419D03*
X115225000Y-115500000D03*
X120775000Y-25000000D03*
X121719581Y-22719581D03*
X121719581Y-27280419D03*
X124000000Y-21775000D03*
D18*
X124000000Y-25000000D03*
D17*
X124000000Y-28225000D03*
X126280419Y-22719581D03*
X126280419Y-27280419D03*
X127225000Y-25000000D03*
X145775000Y-139800000D03*
X146719581Y-137519581D03*
X146719581Y-142080419D03*
X149000000Y-136575000D03*
D18*
X149000000Y-139800000D03*
D17*
X149000000Y-143025000D03*
X151280419Y-137519581D03*
X151280419Y-142080419D03*
X152225000Y-139800000D03*
X157775000Y-25000000D03*
X158719581Y-22719581D03*
X158719581Y-27280419D03*
X161000000Y-21775000D03*
D18*
X161000000Y-25000000D03*
D17*
X161000000Y-28225000D03*
X163280419Y-22719581D03*
X163280419Y-27280419D03*
X164225000Y-25000000D03*
D22*
X127920000Y-187500000D03*
D23*
X133000000Y-187500000D03*
D26*
X84000000Y-138500000D03*
D27*
X84000000Y-143500000D03*
D22*
X135545000Y-140695000D03*
D23*
X130465000Y-140695000D03*
D13*
X238230000Y-114500000D03*
D14*
X239500000Y-115500000D03*
X240770000Y-115500000D03*
X242040000Y-114500000D03*
X243310000Y-115500000D03*
X244580000Y-115500000D03*
X245850000Y-114500000D03*
D15*
X235560000Y-115000000D03*
X248520000Y-115000000D03*
D26*
X84980000Y-105850000D03*
D29*
X89980000Y-105850000D03*
D26*
X191135000Y-115443000D03*
D29*
X191135000Y-110443000D03*
D16*
X174550000Y-135350000D03*
X172150000Y-135350000D03*
X169750000Y-135350000D03*
X167350000Y-135350000D03*
X164950000Y-135350000D03*
D17*
X241050000Y-187730419D03*
X241994581Y-185450000D03*
X241994581Y-190010838D03*
X244275000Y-184505419D03*
D18*
X244275000Y-187730419D03*
D17*
X244275000Y-190955419D03*
X246555419Y-185450000D03*
X246555419Y-190010838D03*
X247500000Y-187730419D03*
D26*
X47900000Y-105750000D03*
D29*
X52900000Y-105750000D03*
D22*
X50400000Y-168021000D03*
D23*
X50400000Y-173101000D03*
X50400000Y-178181000D03*
D11*
X77750000Y-93175000D03*
D12*
X77750000Y-95715000D03*
X77750000Y-98255000D03*
X77750000Y-100795000D03*
X77750000Y-103335000D03*
D23*
X255300000Y-37400000D03*
D11*
X167400000Y-156880000D03*
D12*
X167400000Y-154340000D03*
X167400000Y-151800000D03*
X167400000Y-149260000D03*
X167400000Y-146720000D03*
D35*
X222535000Y-27305000D03*
X233965000Y-27305000D03*
G36*
G01*
X233169000Y-36894000D02*
X233169000Y-35496000D01*
G75*
G02*
X233271000Y-35394000I102000J0D01*
G01*
X234669000Y-35394000D01*
G75*
G02*
X234771000Y-35496000I0J-102000D01*
G01*
X234771000Y-36894000D01*
G75*
G02*
X234669000Y-36996000I-102000J0D01*
G01*
X233271000Y-36996000D01*
G75*
G02*
X233169000Y-36894000I0J102000D01*
G01*
G37*
D36*
X232690000Y-33655000D03*
X231430000Y-36195000D03*
X230150000Y-33655000D03*
X228890000Y-36195000D03*
X227610000Y-33655000D03*
X226350000Y-36195000D03*
X225070000Y-33655000D03*
X223810000Y-36195000D03*
X222530000Y-33655000D03*
D37*
X234875000Y-22405000D03*
X232335000Y-22405000D03*
X224165000Y-22405000D03*
X221625000Y-22405000D03*
D38*
X235995000Y-30355000D03*
X220505000Y-30355000D03*
D17*
X256775000Y-25000000D03*
X257719581Y-22719581D03*
X257719581Y-27280419D03*
X260000000Y-21775000D03*
D18*
X260000000Y-25000000D03*
D17*
X260000000Y-28225000D03*
X262280419Y-22719581D03*
X262280419Y-27280419D03*
X263225000Y-25000000D03*
D11*
X151835000Y-93220000D03*
D12*
X151835000Y-95760000D03*
X151835000Y-98300000D03*
X151835000Y-100840000D03*
X151835000Y-103380000D03*
D19*
X96462323Y-113850000D03*
D20*
X101462323Y-113850000D03*
D17*
X145775000Y-115500000D03*
X146719581Y-113219581D03*
X146719581Y-117780419D03*
X149000000Y-112275000D03*
D18*
X149000000Y-115500000D03*
D17*
X149000000Y-118725000D03*
X151280419Y-113219581D03*
X151280419Y-117780419D03*
X152225000Y-115500000D03*
D11*
X122385000Y-32770000D03*
D12*
X124925000Y-32770000D03*
X122385000Y-35310000D03*
X124925000Y-35310000D03*
X122385000Y-37850000D03*
X124925000Y-37850000D03*
D13*
X107580000Y-103870000D03*
D14*
X108580000Y-102600000D03*
X108580000Y-101330000D03*
X107580000Y-100060000D03*
X108580000Y-98790000D03*
X108580000Y-97520000D03*
X107580000Y-96250000D03*
D15*
X108080000Y-106540000D03*
X108080000Y-93580000D03*
D17*
X241025000Y-139800000D03*
X241969581Y-137519581D03*
X241969581Y-142080419D03*
X244250000Y-136575000D03*
D18*
X244250000Y-139800000D03*
D17*
X244250000Y-143025000D03*
X246530419Y-137519581D03*
X246530419Y-142080419D03*
X247475000Y-139800000D03*
D19*
X59382323Y-102750000D03*
D20*
X64382323Y-102750000D03*
D26*
X64000000Y-138500000D03*
D27*
X64000000Y-143500000D03*
D22*
X179451000Y-113030000D03*
D23*
X184531000Y-113030000D03*
D11*
X68224400Y-187502800D03*
D12*
X68224400Y-184962800D03*
X70764400Y-187502800D03*
X70764400Y-184962800D03*
X73304400Y-187502800D03*
X73304400Y-184962800D03*
X75844400Y-187502800D03*
X75844400Y-184962800D03*
G36*
G01*
X157900000Y-81225000D02*
X157900000Y-79775000D01*
G75*
G02*
X158150000Y-79525000I250000J0D01*
G01*
X159350000Y-79525000D01*
G75*
G02*
X159600000Y-79775000I0J-250000D01*
G01*
X159600000Y-81225000D01*
G75*
G02*
X159350000Y-81475000I-250000J0D01*
G01*
X158150000Y-81475000D01*
G75*
G02*
X157900000Y-81225000I0J250000D01*
G01*
G37*
D39*
X161250000Y-80500000D03*
X163750000Y-80500000D03*
X166250000Y-80500000D03*
D17*
X46775000Y-139800000D03*
X47719581Y-137519581D03*
X47719581Y-142080419D03*
X50000000Y-136575000D03*
D18*
X50000000Y-139800000D03*
D17*
X50000000Y-143025000D03*
X52280419Y-137519581D03*
X52280419Y-142080419D03*
X53225000Y-139800000D03*
D26*
X139465000Y-189695000D03*
D29*
X139465000Y-184695000D03*
D33*
X86390000Y-85275000D03*
X86390000Y-82735000D03*
X86390000Y-77655000D03*
X86390000Y-75115000D03*
X86390000Y-72575000D03*
X86390000Y-80195000D03*
X86390000Y-49715000D03*
X112790000Y-49715000D03*
X86390000Y-47175000D03*
X112790000Y-47175000D03*
X86390000Y-70035000D03*
X112790000Y-87815000D03*
X112790000Y-85275000D03*
X112790000Y-82735000D03*
X112790000Y-80195000D03*
X86390000Y-87815000D03*
X112790000Y-77655000D03*
X86390000Y-67495000D03*
X86390000Y-44635000D03*
X112790000Y-44635000D03*
X86390000Y-42095000D03*
X112790000Y-42095000D03*
D34*
X105940000Y-45135000D03*
X108480000Y-45135000D03*
X105940000Y-41595000D03*
X108480000Y-41595000D03*
X98320000Y-45135000D03*
X100860000Y-45135000D03*
X98320000Y-41595000D03*
X100860000Y-41595000D03*
D33*
X86390000Y-54795000D03*
X112790000Y-54795000D03*
X86390000Y-52255000D03*
X112790000Y-52255000D03*
D34*
X90700000Y-45135000D03*
X93240000Y-45135000D03*
X90700000Y-41595000D03*
X93240000Y-41595000D03*
D19*
X87000000Y-176882323D03*
D20*
X87000000Y-181882323D03*
D19*
X59382323Y-113750000D03*
D20*
X64382323Y-113750000D03*
D35*
X203035000Y-27305000D03*
X214465000Y-27305000D03*
G36*
G01*
X213669000Y-36894000D02*
X213669000Y-35496000D01*
G75*
G02*
X213771000Y-35394000I102000J0D01*
G01*
X215169000Y-35394000D01*
G75*
G02*
X215271000Y-35496000I0J-102000D01*
G01*
X215271000Y-36894000D01*
G75*
G02*
X215169000Y-36996000I-102000J0D01*
G01*
X213771000Y-36996000D01*
G75*
G02*
X213669000Y-36894000I0J102000D01*
G01*
G37*
D36*
X213190000Y-33655000D03*
X211930000Y-36195000D03*
X210650000Y-33655000D03*
X209390000Y-36195000D03*
X208110000Y-33655000D03*
X206850000Y-36195000D03*
X205570000Y-33655000D03*
X204310000Y-36195000D03*
X203030000Y-33655000D03*
D37*
X215375000Y-22405000D03*
X212835000Y-22405000D03*
X204665000Y-22405000D03*
X202125000Y-22405000D03*
D38*
X216495000Y-30355000D03*
X201005000Y-30355000D03*
D22*
X86775000Y-94055000D03*
D23*
X86775000Y-99135000D03*
D11*
X114830000Y-93275000D03*
D12*
X114830000Y-95815000D03*
X114830000Y-98355000D03*
X114830000Y-100895000D03*
X114830000Y-103435000D03*
D26*
X121985000Y-105795000D03*
D29*
X126985000Y-105795000D03*
D22*
X49695000Y-93955000D03*
D23*
X49695000Y-99035000D03*
D33*
X49310000Y-85175000D03*
X49310000Y-82635000D03*
X49310000Y-77555000D03*
X49310000Y-75015000D03*
X49310000Y-72475000D03*
X49310000Y-80095000D03*
X49310000Y-49615000D03*
X75710000Y-49615000D03*
X49310000Y-47075000D03*
X75710000Y-47075000D03*
X49310000Y-69935000D03*
X75710000Y-87715000D03*
X75710000Y-85175000D03*
X75710000Y-82635000D03*
X75710000Y-80095000D03*
X49310000Y-87715000D03*
X75710000Y-77555000D03*
X49310000Y-67395000D03*
X49310000Y-44535000D03*
X75710000Y-44535000D03*
X49310000Y-41995000D03*
X75710000Y-41995000D03*
D34*
X68860000Y-45035000D03*
X71400000Y-45035000D03*
X68860000Y-41495000D03*
X71400000Y-41495000D03*
X61240000Y-45035000D03*
X63780000Y-45035000D03*
X61240000Y-41495000D03*
X63780000Y-41495000D03*
D33*
X49310000Y-54695000D03*
X75710000Y-54695000D03*
X49310000Y-52155000D03*
X75710000Y-52155000D03*
D34*
X53620000Y-45035000D03*
X56160000Y-45035000D03*
X53620000Y-41495000D03*
X56160000Y-41495000D03*
D11*
X109600000Y-157200000D03*
D12*
X107060000Y-157200000D03*
D22*
X115545000Y-140695000D03*
D23*
X110465000Y-140695000D03*
D40*
X62000000Y-173975000D03*
X62000000Y-168975000D03*
X62000000Y-158975000D03*
X62000000Y-153975000D03*
D11*
X180200000Y-92075000D03*
D12*
X180200000Y-89535000D03*
D17*
X145775000Y-25000000D03*
X146719581Y-22719581D03*
X146719581Y-27280419D03*
X149000000Y-21775000D03*
D18*
X149000000Y-25000000D03*
D17*
X149000000Y-28225000D03*
X151280419Y-22719581D03*
X151280419Y-27280419D03*
X152225000Y-25000000D03*
X256775000Y-115500000D03*
X257719581Y-113219581D03*
X257719581Y-117780419D03*
X260000000Y-112275000D03*
D18*
X260000000Y-115500000D03*
D17*
X260000000Y-118725000D03*
X262280419Y-113219581D03*
X262280419Y-117780419D03*
X263225000Y-115500000D03*
D16*
X134850000Y-135200000D03*
X137250000Y-135200000D03*
X139650000Y-135200000D03*
X142050000Y-135200000D03*
X144450000Y-135200000D03*
D13*
X219307000Y-114500000D03*
D14*
X220577000Y-115500000D03*
X221847000Y-115500000D03*
X223117000Y-114500000D03*
X224387000Y-115500000D03*
X225657000Y-115500000D03*
X226927000Y-114500000D03*
D15*
X216637000Y-115000000D03*
X229597000Y-115000000D03*
D17*
X71775000Y-25000000D03*
X72719581Y-22719581D03*
X72719581Y-27280419D03*
X75000000Y-21775000D03*
D18*
X75000000Y-25000000D03*
D17*
X75000000Y-28225000D03*
X77280419Y-22719581D03*
X77280419Y-27280419D03*
X78225000Y-25000000D03*
D19*
X106000000Y-184132323D03*
D20*
X106000000Y-189132323D03*
D41*
X159500000Y-33500000D03*
X159500000Y-64500000D03*
X179250000Y-64500000D03*
X179499999Y-33500000D03*
D11*
X175600000Y-63480000D03*
D12*
X173060000Y-63480000D03*
X170520000Y-63480000D03*
X167980000Y-63480000D03*
X165440000Y-63480000D03*
X162900000Y-63480000D03*
X175599999Y-66020000D03*
X173060000Y-66020000D03*
X170520000Y-66020000D03*
X167980000Y-66020000D03*
X165440000Y-66020001D03*
X162900000Y-66020000D03*
D13*
X161500000Y-88000000D03*
D14*
X162770000Y-89000000D03*
X164040000Y-89000000D03*
X165310000Y-88000000D03*
X166580000Y-89000000D03*
X167850000Y-89000000D03*
X169120000Y-88000000D03*
D15*
X158830000Y-88500000D03*
X171790000Y-88500000D03*
D13*
X162100000Y-150520000D03*
D14*
X161100000Y-151790000D03*
X161100000Y-153060000D03*
X162100000Y-154330000D03*
X161100000Y-155600000D03*
X161100000Y-156870000D03*
X162100000Y-158140000D03*
D15*
X161600000Y-147850000D03*
X161600000Y-160810000D03*
D13*
X200384000Y-114500000D03*
D14*
X201654000Y-115500000D03*
X202924000Y-115500000D03*
X204194000Y-114500000D03*
X205464000Y-115500000D03*
X206734000Y-115500000D03*
X208004000Y-114500000D03*
D15*
X197714000Y-115000000D03*
X210674000Y-115000000D03*
D19*
X74250000Y-171000000D03*
D20*
X69250000Y-171000000D03*
D42*
X203420000Y-41047000D03*
D14*
X203420000Y-107847000D03*
D43*
X260220000Y-63647000D03*
X260220000Y-96647000D03*
D19*
X133467323Y-113795000D03*
D20*
X138467323Y-113795000D03*
D17*
X46775000Y-187800000D03*
X47719581Y-185519581D03*
X47719581Y-190080419D03*
X50000000Y-184575000D03*
D18*
X50000000Y-187800000D03*
D17*
X50000000Y-191025000D03*
X52280419Y-185519581D03*
X52280419Y-190080419D03*
X53225000Y-187800000D03*
G36*
G01*
X48625000Y-153000000D02*
X47125000Y-153000000D01*
G75*
G02*
X46875000Y-152750000I0J250000D01*
G01*
X46875000Y-151550000D01*
G75*
G02*
X47125000Y-151300000I250000J0D01*
G01*
X48625000Y-151300000D01*
G75*
G02*
X48875000Y-151550000I0J-250000D01*
G01*
X48875000Y-152750000D01*
G75*
G02*
X48625000Y-153000000I-250000J0D01*
G01*
G37*
D44*
X47875000Y-149650000D03*
D13*
X161500000Y-72250000D03*
D14*
X162770000Y-73250000D03*
X164040000Y-73250000D03*
X165310000Y-72250000D03*
X166580000Y-73250000D03*
X167850000Y-73250000D03*
X169120000Y-72250000D03*
D15*
X158830000Y-72750000D03*
X171790000Y-72750000D03*
D40*
X147975000Y-177000000D03*
X142975000Y-177000000D03*
X132975000Y-177000000D03*
X127975000Y-177000000D03*
D11*
X48300000Y-32725000D03*
D12*
X50840000Y-32725000D03*
X48300000Y-35265000D03*
X50840000Y-35265000D03*
X48300000Y-37805000D03*
X50840000Y-37805000D03*
D22*
X141585000Y-31750000D03*
D23*
X136505000Y-31750000D03*
X131425000Y-31750000D03*
D17*
X120775000Y-115500000D03*
X121719581Y-113219581D03*
X121719581Y-117780419D03*
X124000000Y-112275000D03*
D18*
X124000000Y-115500000D03*
D17*
X124000000Y-118725000D03*
X126280419Y-113219581D03*
X126280419Y-117780419D03*
X127225000Y-115500000D03*
D22*
X67500000Y-31750000D03*
D23*
X62420000Y-31750000D03*
X57340000Y-31750000D03*
D17*
X46775000Y-115500000D03*
X47719581Y-113219581D03*
X47719581Y-117780419D03*
X50000000Y-112275000D03*
D18*
X50000000Y-115500000D03*
D17*
X50000000Y-118725000D03*
X52280419Y-113219581D03*
X52280419Y-117780419D03*
X53225000Y-115500000D03*
D26*
X124000000Y-138500000D03*
D27*
X124000000Y-143500000D03*
D17*
X157775000Y-139800000D03*
X158719581Y-137519581D03*
X158719581Y-142080419D03*
X161000000Y-136575000D03*
D18*
X161000000Y-139800000D03*
D17*
X161000000Y-143025000D03*
X163280419Y-137519581D03*
X163280419Y-142080419D03*
X164225000Y-139800000D03*
D16*
X219650000Y-120000000D03*
X222050000Y-120000000D03*
X224450000Y-120000000D03*
X226850000Y-120000000D03*
X229250000Y-120000000D03*
M02*
