G04 #@! TF.GenerationSoftware,KiCad,Pcbnew,8.0.8+1*
G04 #@! TF.CreationDate,2025-06-18T22:46:37+00:00*
G04 #@! TF.ProjectId,hw-openmower-universal,68772d6f-7065-46e6-9d6f-7765722d756e,rev?*
G04 #@! TF.SameCoordinates,Original*
G04 #@! TF.FileFunction,Profile,NP*
%FSLAX46Y46*%
G04 Gerber Fmt 4.6, Leading zero omitted, Abs format (unit mm)*
G04 Created by KiCad (PCBNEW 8.0.8+1) date 2025-06-18 22:46:37*
%MOMM*%
%LPD*%
G01*
G04 APERTURE LIST*
G04 #@! TA.AperFunction,Profile*
%ADD10C,0.050000*%
G04 #@! TD*
G04 APERTURE END LIST*
D10*
X156000000Y-173700000D02*
X156000000Y-160400000D01*
X156000000Y-149700000D02*
X156000000Y-139800000D01*
X145600000Y-134800000D02*
X149000000Y-134800000D01*
X68750001Y-23999999D02*
X68750001Y-20499999D01*
X239550000Y-134800000D02*
G75*
G02*
X239550000Y-132800000I0J1000000D01*
G01*
X56249999Y-24000001D02*
X56250000Y-20500000D01*
X239550000Y-134800000D02*
X244250000Y-134800000D01*
X133650000Y-132800000D02*
X127750000Y-132800000D01*
X75650000Y-132800000D02*
G75*
G02*
X75650000Y-134800000I0J-1000000D01*
G01*
X45000000Y-139800000D02*
G75*
G02*
X50000000Y-134800000I5000000J0D01*
G01*
X154000000Y-70300000D02*
G75*
G02*
X156000000Y-70300000I1000000J0D01*
G01*
X179100000Y-120500000D02*
X197500000Y-120500000D01*
X156000000Y-96400000D02*
X156000000Y-70300000D01*
X156000000Y-184600000D02*
X156000000Y-187800000D01*
X166800000Y-120500000D02*
G75*
G02*
X166800000Y-122500000I0J-1000000D01*
G01*
X106750001Y-24000001D02*
X106750000Y-20500000D01*
X133249999Y-20000000D02*
X130750001Y-20000000D01*
X100750000Y-19999999D02*
X98250002Y-19999999D01*
X82000000Y-25000000D02*
G75*
G02*
X87000000Y-20000000I5000000J0D01*
G01*
X75000000Y-120500000D02*
X67900000Y-120500000D01*
X112000000Y-20000000D02*
G75*
G02*
X117000000Y-25000000I0J-5000000D01*
G01*
X68200000Y-134800000D02*
X75650000Y-134800000D01*
X59249999Y-20000000D02*
G75*
G02*
X59750000Y-20500000I1J-500000D01*
G01*
X139250000Y-24000000D02*
G75*
G02*
X138250000Y-24000000I-500000J0D01*
G01*
X179100000Y-122500000D02*
G75*
G02*
X179100000Y-120500000I0J1000000D01*
G01*
X130249999Y-24000001D02*
G75*
G02*
X129250001Y-24000001I-499999J1D01*
G01*
X230550000Y-122500000D02*
G75*
G02*
X230550000Y-120500000I0J1000000D01*
G01*
X142750001Y-23999999D02*
X142750001Y-20499999D01*
X60750001Y-20499999D02*
G75*
G02*
X61250002Y-20000001I499999J-1D01*
G01*
X82000000Y-96400000D02*
G75*
G02*
X80000000Y-96400000I-1000000J0D01*
G01*
X249257107Y-121500000D02*
G75*
G02*
X250257107Y-120500007I999993J0D01*
G01*
X96050000Y-132800000D02*
G75*
G02*
X96050000Y-134800000I0J-1000000D01*
G01*
X119000000Y-57900000D02*
X119000000Y-37400000D01*
X70250001Y-20000000D02*
X75000000Y-20000000D01*
X156000000Y-139800000D02*
G75*
G02*
X161000000Y-134800000I5000000J0D01*
G01*
X63750000Y-19999999D02*
G75*
G02*
X64250001Y-20499999I0J-500001D01*
G01*
X116150000Y-132800000D02*
G75*
G02*
X116150000Y-134800000I0J-1000000D01*
G01*
X142250000Y-19999999D02*
X139750002Y-19999999D01*
X65250000Y-24000000D02*
G75*
G02*
X64250000Y-24000000I-500000J0D01*
G01*
X93249999Y-24000001D02*
X93250000Y-20500000D01*
X97750000Y-24000000D02*
X97750001Y-20499999D01*
X119000000Y-57900000D02*
G75*
G02*
X117000000Y-57900000I-1000000J0D01*
G01*
X93250000Y-20500000D02*
G75*
G02*
X93750001Y-20000000I500000J0D01*
G01*
X82000000Y-115500000D02*
X82000000Y-108400000D01*
X80000000Y-70300000D02*
G75*
G02*
X82000000Y-70300000I1000000J0D01*
G01*
X80000000Y-37400000D02*
G75*
G02*
X82000000Y-37400000I1000000J0D01*
G01*
X175650000Y-134800000D02*
G75*
G02*
X175650000Y-132800000I0J1000000D01*
G01*
X91750000Y-20000000D02*
X87000000Y-20000000D01*
X161000000Y-192800000D02*
G75*
G02*
X156000000Y-187800000I0J5000000D01*
G01*
X124000000Y-120500000D02*
G75*
G02*
X119000000Y-115500000I0J5000000D01*
G01*
X249250000Y-187800000D02*
G75*
G02*
X244250000Y-192800000I-5000000J0D01*
G01*
X102250000Y-24000000D02*
X102250001Y-20499999D01*
X80000000Y-115500000D02*
G75*
G02*
X75000000Y-120500000I-5000000J0D01*
G01*
X211000000Y-122500000D02*
G75*
G02*
X211000000Y-120500000I0J1000000D01*
G01*
X133249999Y-20000000D02*
G75*
G02*
X133750000Y-20500000I1J-500000D01*
G01*
X230550000Y-120500000D02*
X237800000Y-120500000D01*
X137750000Y-19999999D02*
G75*
G02*
X138250001Y-20499999I0J-500001D01*
G01*
X154000000Y-37400000D02*
G75*
G02*
X156000000Y-37400000I1000000J0D01*
G01*
X128750000Y-20000000D02*
X124000000Y-20000000D01*
X55800000Y-134800000D02*
X50000000Y-134800000D01*
X119000000Y-96400000D02*
X119000000Y-70300000D01*
X239550000Y-132800000D02*
X248242893Y-132800000D01*
X139250000Y-24000000D02*
X139250001Y-20499999D01*
X80000000Y-37400000D02*
X80000000Y-57900000D01*
X68250000Y-19999999D02*
X65750002Y-19999999D01*
X127750000Y-134800000D02*
X133650000Y-134800000D01*
X67900000Y-122500000D02*
X92800000Y-122500000D01*
X130250000Y-20500000D02*
G75*
G02*
X130750001Y-20000000I500000J0D01*
G01*
X105000000Y-122500000D02*
G75*
G02*
X105000000Y-120500000I0J1000000D01*
G01*
X154000000Y-187800000D02*
G75*
G02*
X149000000Y-192800000I-5000000J0D01*
G01*
X156000000Y-149700000D02*
G75*
G02*
X154000000Y-149700000I-1000000J0D01*
G01*
X144250001Y-20000000D02*
X149000000Y-20000000D01*
X228750000Y-134800000D02*
X175650000Y-134800000D01*
X59750000Y-24000000D02*
X59750000Y-20500000D01*
X45000000Y-25000000D02*
G75*
G02*
X50000000Y-20000000I5000000J0D01*
G01*
X154000000Y-160400000D02*
G75*
G02*
X156000000Y-160400000I1000000J0D01*
G01*
X117000000Y-115500000D02*
X117000000Y-108400000D01*
X130249999Y-24000001D02*
X130250000Y-20500000D01*
X154000000Y-115500000D02*
X154000000Y-108400000D01*
X105250000Y-19999999D02*
X102750002Y-19999999D01*
X108025000Y-134800000D02*
X116150000Y-134800000D01*
X117000000Y-70300000D02*
X117000000Y-96400000D01*
X69750000Y-20500000D02*
G75*
G02*
X70250001Y-20000000I500000J0D01*
G01*
X175650000Y-132800000D02*
X228750000Y-132800000D01*
X55800000Y-120500000D02*
G75*
G02*
X56800000Y-121500000I0J-1000000D01*
G01*
X117000000Y-70300000D02*
G75*
G02*
X119000000Y-70300000I1000000J0D01*
G01*
X82000000Y-57900000D02*
X82000000Y-37400000D01*
X142250000Y-19999999D02*
G75*
G02*
X142750001Y-20499999I0J-500001D01*
G01*
X101250000Y-24000000D02*
X101250000Y-20499999D01*
X65250001Y-20499999D02*
G75*
G02*
X65750002Y-20000001I499999J-1D01*
G01*
X127750000Y-134800000D02*
G75*
G02*
X127750000Y-132800000I0J1000000D01*
G01*
X117000000Y-37400000D02*
G75*
G02*
X119000000Y-37400000I1000000J0D01*
G01*
X87525000Y-134800000D02*
X96050000Y-134800000D01*
X119000000Y-25000000D02*
G75*
G02*
X117000000Y-25000000I-1000000J0D01*
G01*
X117000000Y-115500000D02*
G75*
G02*
X112000000Y-120500000I-5000000J0D01*
G01*
X105250000Y-19999999D02*
G75*
G02*
X105750001Y-20499999I0J-500001D01*
G01*
X156000000Y-173700000D02*
G75*
G02*
X154000000Y-173700000I-1000000J0D01*
G01*
X68250000Y-19999999D02*
G75*
G02*
X68750001Y-20499999I0J-500001D01*
G01*
X156000000Y-57900000D02*
X156000000Y-37400000D01*
X56249999Y-24000001D02*
G75*
G02*
X55250001Y-24000001I-499999J1D01*
G01*
X133650000Y-132800000D02*
G75*
G02*
X133650000Y-134800000I0J-1000000D01*
G01*
X250257107Y-120500000D02*
X260000000Y-120500000D01*
X105750001Y-23999999D02*
X105750001Y-20499999D01*
X91750000Y-20000000D02*
G75*
G02*
X92250000Y-20500001I0J-500000D01*
G01*
X154000000Y-160400000D02*
X154000000Y-173700000D01*
X117000000Y-37400000D02*
X117000000Y-57900000D01*
X249250000Y-187800000D02*
X249250000Y-139800000D01*
X156000000Y-96400000D02*
G75*
G02*
X154000000Y-96400000I-1000000J0D01*
G01*
X119000000Y-96400000D02*
G75*
G02*
X117000000Y-96400000I-1000000J0D01*
G01*
X87000000Y-120500000D02*
G75*
G02*
X82000000Y-115500000I0J5000000D01*
G01*
X143750000Y-20500000D02*
G75*
G02*
X144250001Y-20000000I500000J0D01*
G01*
X106750000Y-20500000D02*
G75*
G02*
X107250001Y-20000000I500000J0D01*
G01*
X137750000Y-19999999D02*
X135250002Y-19999999D01*
X142000000Y-122500000D02*
G75*
G02*
X142000000Y-120500000I0J1000000D01*
G01*
X143750001Y-24000001D02*
X143750000Y-20500000D01*
X69750001Y-24000001D02*
X69750000Y-20500000D01*
X116150000Y-132800000D02*
X108025000Y-132800000D01*
X69750001Y-24000001D02*
G75*
G02*
X68749999Y-23999999I-500001J1D01*
G01*
X145600000Y-134800000D02*
G75*
G02*
X145600000Y-132800000I0J1000000D01*
G01*
X143750001Y-24000001D02*
G75*
G02*
X142749999Y-23999999I-500001J1D01*
G01*
X129800000Y-120500000D02*
G75*
G02*
X129800000Y-122500000I0J-1000000D01*
G01*
X75650000Y-132800000D02*
X68200000Y-132800000D01*
X82000000Y-25000000D02*
G75*
G02*
X80000000Y-25000000I-1000000J0D01*
G01*
X96750000Y-24000000D02*
X96750000Y-20500000D01*
X197500000Y-122500000D02*
X179100000Y-122500000D01*
X197500000Y-120500000D02*
G75*
G02*
X197500000Y-122500000I0J-1000000D01*
G01*
X59249999Y-20000000D02*
X56750001Y-20000000D01*
X142000000Y-122500000D02*
X166800000Y-122500000D01*
X97750000Y-24000000D02*
G75*
G02*
X96750000Y-24000000I-500000J0D01*
G01*
X50000000Y-120500000D02*
G75*
G02*
X45000000Y-115500000I0J5000000D01*
G01*
X54750000Y-20000000D02*
X50000000Y-20000000D01*
X228750000Y-132800000D02*
G75*
G02*
X228750000Y-134800000I0J-1000000D01*
G01*
X82000000Y-96400000D02*
X82000000Y-70300000D01*
X124000000Y-120500000D02*
X129800000Y-120500000D01*
X129249999Y-24000001D02*
X129250000Y-20500001D01*
X154000000Y-149700000D02*
X154000000Y-139800000D01*
X154000000Y-187800000D02*
X154000000Y-184600000D01*
X80000000Y-115500000D02*
X80000000Y-108400000D01*
X92800000Y-120500000D02*
G75*
G02*
X92800000Y-122500000I0J-1000000D01*
G01*
X156000000Y-57900000D02*
G75*
G02*
X154000000Y-57900000I-1000000J0D01*
G01*
X45000000Y-139800000D02*
X45000000Y-187800000D01*
X154000000Y-108400000D02*
G75*
G02*
X156000000Y-108400000I1000000J0D01*
G01*
X249250025Y-131800000D02*
G75*
G02*
X248242893Y-132800000I-1000025J0D01*
G01*
X65250000Y-24000000D02*
X65250001Y-20499999D01*
X237800000Y-120500000D02*
G75*
G02*
X237800000Y-122500000I0J-1000000D01*
G01*
X117000000Y-108400000D02*
G75*
G02*
X119000000Y-108400000I1000000J0D01*
G01*
X60750000Y-24000000D02*
G75*
G02*
X59750000Y-24000000I-500000J0D01*
G01*
X96249999Y-20000000D02*
X93750001Y-20000000D01*
X134750000Y-24000000D02*
G75*
G02*
X133750000Y-24000000I-500000J0D01*
G01*
X156000000Y-115500000D02*
X156000000Y-108400000D01*
X154000000Y-70300000D02*
X154000000Y-96400000D01*
X244250000Y-134800000D02*
G75*
G02*
X249250000Y-139800000I0J-5000000D01*
G01*
X119000000Y-25000000D02*
G75*
G02*
X124000000Y-20000000I5000000J0D01*
G01*
X156000000Y-25000000D02*
G75*
G02*
X154000000Y-25000000I-1000000J0D01*
G01*
X149000000Y-134800000D02*
G75*
G02*
X154000000Y-139800000I0J-5000000D01*
G01*
X149000000Y-120500000D02*
X142000000Y-120500000D01*
X68200000Y-134800000D02*
G75*
G02*
X68200000Y-132800000I0J1000000D01*
G01*
X154000000Y-184600000D02*
G75*
G02*
X156000000Y-184600000I1000000J0D01*
G01*
X139250001Y-20499999D02*
G75*
G02*
X139750002Y-20000001I499999J-1D01*
G01*
X50000000Y-192800000D02*
X149000000Y-192800000D01*
X265000000Y-115500000D02*
G75*
G02*
X260000000Y-120500000I-5000000J0D01*
G01*
X80000000Y-108400000D02*
G75*
G02*
X82000000Y-108400000I1000000J0D01*
G01*
X87525000Y-134800000D02*
G75*
G02*
X87525000Y-132800000I0J1000000D01*
G01*
X211000000Y-120500000D02*
X218250000Y-120500000D01*
X161000000Y-192800000D02*
X244250000Y-192800000D01*
X75000000Y-20000000D02*
G75*
G02*
X80000000Y-25000000I0J-5000000D01*
G01*
X80000000Y-70300000D02*
X80000000Y-96400000D01*
X108025000Y-134800000D02*
G75*
G02*
X108025000Y-132800000I0J1000000D01*
G01*
X260000000Y-20000000D02*
G75*
G02*
X265000000Y-25000000I0J-5000000D01*
G01*
X102250001Y-20499999D02*
G75*
G02*
X102750002Y-20000001I499999J-1D01*
G01*
X161000000Y-120500000D02*
G75*
G02*
X156000000Y-115500000I0J5000000D01*
G01*
X67900000Y-122500000D02*
G75*
G02*
X67900000Y-120500000I0J1000000D01*
G01*
X102250000Y-24000000D02*
G75*
G02*
X101250000Y-24000000I-500000J0D01*
G01*
X87000000Y-120500000D02*
X92800000Y-120500000D01*
X54750000Y-20000000D02*
G75*
G02*
X55250000Y-20500001I0J-500000D01*
G01*
X64250000Y-24000000D02*
X64250000Y-20499999D01*
X50000000Y-192800000D02*
G75*
G02*
X45000000Y-187800000I0J5000000D01*
G01*
X138250000Y-24000000D02*
X138250000Y-20499999D01*
X96050000Y-132800000D02*
X87525000Y-132800000D01*
X56250000Y-20500000D02*
G75*
G02*
X56750001Y-20000000I500000J0D01*
G01*
X154000000Y-37400000D02*
X154000000Y-57900000D01*
X97750001Y-20499999D02*
G75*
G02*
X98250002Y-20000001I499999J-1D01*
G01*
X149000000Y-20000000D02*
G75*
G02*
X154000000Y-25000000I0J-5000000D01*
G01*
X161000000Y-120500000D02*
X166800000Y-120500000D01*
X134750000Y-24000000D02*
X134750001Y-20499999D01*
X133750000Y-24000000D02*
X133750000Y-20500000D01*
X260000000Y-20000000D02*
X161000000Y-20000000D01*
X93249999Y-24000001D02*
G75*
G02*
X92250001Y-24000001I-499999J1D01*
G01*
X218250000Y-120500000D02*
G75*
G02*
X218250000Y-122500000I0J-1000000D01*
G01*
X164000000Y-134800000D02*
X161000000Y-134800000D01*
X96249999Y-20000000D02*
G75*
G02*
X96750000Y-20500000I1J-500000D01*
G01*
X112000000Y-120500000D02*
X105000000Y-120500000D01*
X60750000Y-24000000D02*
X60750001Y-20499999D01*
X164000000Y-132800000D02*
X145600000Y-132800000D01*
X105000000Y-122500000D02*
X129800000Y-122500000D01*
X106750001Y-24000001D02*
G75*
G02*
X105749999Y-23999999I-500001J1D01*
G01*
X156000000Y-25000000D02*
G75*
G02*
X161000000Y-20000000I5000000J0D01*
G01*
X45000000Y-115500000D02*
X45000000Y-25000000D01*
X134750001Y-20499999D02*
G75*
G02*
X135250002Y-20000001I499999J-1D01*
G01*
X63750000Y-19999999D02*
X61250002Y-19999999D01*
X82000000Y-57900000D02*
G75*
G02*
X80000000Y-57900000I-1000000J0D01*
G01*
X154000000Y-115500000D02*
G75*
G02*
X149000000Y-120500000I-5000000J0D01*
G01*
X107250001Y-20000000D02*
X112000000Y-20000000D01*
X50000000Y-120500000D02*
X55800000Y-120500000D01*
X237800000Y-122500000D02*
X230550000Y-122500000D01*
X128750000Y-20000000D02*
G75*
G02*
X129250000Y-20500001I0J-500000D01*
G01*
X119000000Y-115500000D02*
X119000000Y-108400000D01*
X56800000Y-133800000D02*
G75*
G02*
X55800000Y-134800000I-1000000J0D01*
G01*
X218250000Y-122500000D02*
X211000000Y-122500000D01*
X100750000Y-19999999D02*
G75*
G02*
X101250001Y-20499999I0J-500001D01*
G01*
X56800000Y-121500000D02*
X56800000Y-133800000D01*
X92249999Y-24000001D02*
X92250000Y-20500001D01*
X265000000Y-115500000D02*
X265000000Y-25000000D01*
X164000000Y-132800000D02*
G75*
G02*
X164000000Y-134800000I0J-1000000D01*
G01*
X249250025Y-131800000D02*
X249257107Y-121500000D01*
X55249999Y-24000001D02*
X55250000Y-20500001D01*
M02*
